Jinko-Book.ufo
<glyph name="exclam" format="1">
  <advance width="478"/>
  <unicode hex="0021"/>
  <outline>
    <contour>
      <point x="238" y="-8" type="curve" smooth="yes"/>
      <point x="331" y="-8"/>
      <point x="404" y="65"/>
      <point x="404" y="158" type="curve" smooth="yes"/>
      <point x="404" y="251"/>
      <point x="331" y="325"/>
      <point x="238" y="325" type="curve" smooth="yes"/>
      <point x="145" y="325"/>
      <point x="72" y="251"/>
      <point x="72" y="158" type="curve" smooth="yes"/>
      <point x="72" y="65"/>
      <point x="145" y="-8"/>
    </contour>
    <contour>
      <point x="194" y="503" type="line"/>
      <point x="285" y="503" type="line"/>
      <point x="402" y="1481" type="line"/>
      <point x="80" y="1481" type="line"/>
    </contour>
  </outline>
</glyph>
<glyph name="quotedbl" format="1">
  <advance width="784"/>
  <unicode hex="0022"/>
  <outline>
    <contour>
      <point x="124" y="950" type="line"/>
      <point x="273" y="950" type="line"/>
      <point x="317" y="1481" type="line"/>
      <point x="80" y="1481" type="line"/>
    </contour>
    <contour>
      <point x="513" y="950" type="line"/>
      <point x="661" y="950" type="line"/>
      <point x="706" y="1481" type="line"/>
      <point x="470" y="1481" type="line"/>
    </contour>
  </outline>
</glyph>
<glyph name="numbersign" format="1">
  <advance width="1299"/>
  <unicode hex="0023"/>
  <outline>
    <contour>
      <point x="187" y="39" type="line"/>
      <point x="352" y="39" type="line"/>
      <point x="438" y="430" type="line"/>
      <point x="731" y="430" type="line"/>
      <point x="648" y="39" type="line"/>
      <point x="811" y="39" type="line"/>
      <point x="896" y="430" type="line"/>
      <point x="1193" y="430" type="line"/>
      <point x="1193" y="559" type="line"/>
      <point x="924" y="559" type="line"/>
      <point x="1020" y="968" type="line"/>
      <point x="1269" y="968" type="line"/>
      <point x="1269" y="1093" type="line"/>
      <point x="1049" y="1093" type="line"/>
      <point x="1123" y="1431" type="line"/>
      <point x="955" y="1431" type="line"/>
      <point x="882" y="1093" type="line"/>
      <point x="592" y="1093" type="line"/>
      <point x="664" y="1431" type="line"/>
      <point x="496" y="1431" type="line"/>
      <point x="423" y="1093" type="line"/>
      <point x="117" y="1093" type="line"/>
      <point x="117" y="968" type="line"/>
      <point x="395" y="968" type="line"/>
      <point x="300" y="559" type="line"/>
      <point x="30" y="559" type="line"/>
      <point x="30" y="430" type="line"/>
      <point x="272" y="430" type="line"/>
    </contour>
    <contour>
      <point x="467" y="556" type="line"/>
      <point x="562" y="971" type="line"/>
      <point x="857" y="971" type="line"/>
      <point x="762" y="556" type="line"/>
    </contour>
  </outline>
</glyph>
<glyph name="dollar" format="1">
  <advance width="1162"/>
  <unicode hex="0024"/>
  <outline>
    <contour>
      <point x="538" y="-168" type="line"/>
      <point x="658" y="-168" type="line"/>
      <point x="658" y="-14" type="line"/>
      <point x="932" y="16"/>
      <point x="1122" y="154"/>
      <point x="1122" y="395" type="curve" smooth="yes"/>
      <point x="1122" y="642"/>
      <point x="1014" y="737"/>
      <point x="658" y="836" type="curve"/>
      <point x="658" y="1321" type="line"/>
      <point x="784" y="1318"/>
      <point x="915" y="1283"/>
      <point x="1026" y="1211" type="curve"/>
      <point x="1054" y="1211" type="line"/>
      <point x="1079" y="1384" type="line"/>
      <point x="964" y="1449"/>
      <point x="813" y="1495"/>
      <point x="658" y="1503" type="curve"/>
      <point x="658" y="1628" type="line"/>
      <point x="538" y="1628" type="line"/>
      <point x="538" y="1501" type="line"/>
      <point x="260" y="1477"/>
      <point x="71" y="1322"/>
      <point x="71" y="1074" type="curve" smooth="yes"/>
      <point x="71" y="830"/>
      <point x="208" y="729"/>
      <point x="538" y="653" type="curve"/>
      <point x="538" y="159" type="line"/>
      <point x="397" y="162"/>
      <point x="209" y="206"/>
      <point x="97" y="321" type="curve"/>
      <point x="67" y="321" type="line"/>
      <point x="34" y="126" type="line"/>
      <point x="167" y="39"/>
      <point x="329" y="-17"/>
      <point x="538" y="-19" type="curve"/>
    </contour>
    <contour>
      <point x="663" y="168" type="curve"/>
      <point x="658" y="167" type="line"/>
      <point x="658" y="623" type="line"/>
      <point x="857" y="565"/>
      <point x="904" y="488"/>
      <point x="904" y="379" type="curve" smooth="yes"/>
      <point x="904" y="288"/>
      <point x="831" y="197"/>
    </contour>
    <contour>
      <point x="538" y="865" type="line"/>
      <point x="352" y="910"/>
      <point x="285" y="980"/>
      <point x="285" y="1080" type="curve" smooth="yes"/>
      <point x="285" y="1192"/>
      <point x="375" y="1290"/>
      <point x="538" y="1316" type="curve"/>
    </contour>
  </outline>
</glyph>
<glyph name="percent" format="1">
  <advance width="1886"/>
  <unicode hex="0025"/>
  <outline>
    <contour>
      <point x="398" y="790" type="curve" smooth="yes"/>
      <point x="304" y="790"/>
      <point x="261" y="891"/>
      <point x="261" y="993" type="curve" smooth="yes"/>
      <point x="261" y="1099"/>
      <point x="308" y="1208"/>
      <point x="397" y="1208" type="curve" smooth="yes"/>
      <point x="490" y="1208"/>
      <point x="531" y="1109"/>
      <point x="531" y="1007" type="curve" smooth="yes"/>
      <point x="531" y="899"/>
      <point x="485" y="790"/>
    </contour>
    <contour>
      <point x="397" y="601" type="curve" smooth="yes"/>
      <point x="634" y="601"/>
      <point x="760" y="804"/>
      <point x="760" y="1005" type="curve" smooth="yes"/>
      <point x="760" y="1200"/>
      <point x="641" y="1393"/>
      <point x="398" y="1395" type="curve"/>
      <point x="154" y="1392"/>
      <point x="32" y="1195"/>
      <point x="32" y="996" type="curve" smooth="yes"/>
      <point x="32" y="799"/>
      <point x="154" y="601"/>
    </contour>
    <contour>
      <point x="460" y="0" type="line"/>
      <point x="702" y="0" type="line"/>
      <point x="1432" y="1391" type="line"/>
      <point x="1189" y="1391" type="line"/>
    </contour>
    <contour>
      <point x="1495" y="185" type="curve" smooth="yes"/>
      <point x="1402" y="185"/>
      <point x="1358" y="284"/>
      <point x="1358" y="386" type="curve" smooth="yes"/>
      <point x="1358" y="492"/>
      <point x="1405" y="602"/>
      <point x="1491" y="605" type="curve"/>
      <point x="1584" y="605"/>
      <point x="1628" y="502"/>
      <point x="1628" y="398" type="curve" smooth="yes"/>
      <point x="1628" y="292"/>
      <point x="1584" y="185"/>
    </contour>
    <contour>
      <point x="1495" y="-3" type="curve" smooth="yes"/>
      <point x="1732" y="-3"/>
      <point x="1854" y="202"/>
      <point x="1854" y="403" type="curve" smooth="yes"/>
      <point x="1854" y="598"/>
      <point x="1738" y="791"/>
      <point x="1495" y="791" type="curve"/>
      <point x="1252" y="788"/>
      <point x="1129" y="590"/>
      <point x="1129" y="391" type="curve" smooth="yes"/>
      <point x="1129" y="194"/>
      <point x="1252" y="-3"/>
    </contour>
  </outline>
</glyph>
<glyph name="quotesingle" format="1">
  <advance width="397"/>
  <unicode hex="0027"/>
  <outline>
    <contour>
      <point x="120" y="877" type="line"/>
      <point x="255" y="877" type="line"/>
      <point x="322" y="1481" type="line"/>
      <point x="80" y="1481" type="line"/>
    </contour>
  </outline>
</glyph>
<glyph name="plus" format="1">
  <advance width="1237"/>
  <unicode hex="002B"/>
  <outline>
    <contour>
      <point x="519" y="0" type="line"/>
      <point x="718" y="0" type="line"/>
      <point x="718" y="488" type="line"/>
      <point x="1151" y="488" type="line"/>
      <point x="1151" y="668" type="line"/>
      <point x="718" y="668" type="line"/>
      <point x="718" y="1117" type="line"/>
      <point x="519" y="1117" type="line"/>
      <point x="519" y="668" type="line"/>
      <point x="86" y="668" type="line"/>
      <point x="86" y="488" type="line"/>
      <point x="519" y="488" type="line"/>
    </contour>
  </outline>
</glyph>
<glyph name="comma" format="1">
  <advance width="475"/>
  <unicode hex="002C"/>
  <outline>
    <contour>
      <point x="104" y="-281" type="line"/>
      <point x="245" y="-281" type="line"/>
      <point x="358" y="252" type="line"/>
      <point x="133" y="252" type="line"/>
    </contour>
  </outline>
</glyph>
<glyph name="hyphen" format="1">
  <advance width="827"/>
  <unicode hex="002D"/>
  <outline>
    <contour>
      <point x="90" y="525" type="line"/>
      <point x="737" y="525" type="line"/>
      <point x="737" y="661" type="line"/>
      <point x="90" y="661" type="line"/>
    </contour>
  </outline>
</glyph>
<glyph name="period" format="1">
  <advance width="496"/>
  <unicode hex="002E"/>
  <outline>
    <contour>
      <point x="249" y="-8" type="curve" smooth="yes"/>
      <point x="342" y="-8"/>
      <point x="415" y="65"/>
      <point x="415" y="158" type="curve" smooth="yes"/>
      <point x="415" y="251"/>
      <point x="342" y="325"/>
      <point x="249" y="325" type="curve" smooth="yes"/>
      <point x="156" y="325"/>
      <point x="82" y="251"/>
      <point x="82" y="158" type="curve" smooth="yes"/>
      <point x="82" y="65"/>
      <point x="156" y="-8"/>
    </contour>
  </outline>
</glyph>
<glyph name="slash" format="1">
  <advance width="833"/>
  <unicode hex="002F"/>
  <outline>
    <contour>
      <point x="27" y="0" type="line"/>
      <point x="295" y="0" type="line"/>
      <point x="807" y="1480" type="line"/>
      <point x="537" y="1480" type="line"/>
    </contour>
  </outline>
</glyph>
<glyph name="zero" format="1">
  <advance width="1364"/>
  <unicode hex="0030"/>
  <outline>
    <contour>
      <point x="683" y="158" type="curve" smooth="yes"/>
      <point x="376" y="158"/>
      <point x="339" y="402"/>
      <point x="339" y="740" type="curve" smooth="yes"/>
      <point x="339" y="1079"/>
      <point x="384" y="1324"/>
      <point x="683" y="1324" type="curve" smooth="yes"/>
      <point x="974" y="1324"/>
      <point x="1025" y="1075"/>
      <point x="1025" y="740" type="curve" smooth="yes"/>
      <point x="1025" y="414"/>
      <point x="983" y="158"/>
    </contour>
    <contour>
      <point x="683" y="-23" type="curve" smooth="yes"/>
      <point x="1107" y="-23"/>
      <point x="1265" y="273"/>
      <point x="1265" y="740" type="curve" smooth="yes"/>
      <point x="1265" y="1212"/>
      <point x="1106" y="1503"/>
      <point x="683" y="1503" type="curve" smooth="yes"/>
      <point x="260" y="1503"/>
      <point x="99" y="1211"/>
      <point x="99" y="740" type="curve" smooth="yes"/>
      <point x="99" y="272"/>
      <point x="259" y="-23"/>
    </contour>
  </outline>
</glyph>
<glyph name="one" format="1">
  <advance width="1055"/>
  <unicode hex="0031"/>
  <outline>
    <contour>
      <point x="212" y="0" type="line"/>
      <point x="962" y="0" type="line"/>
      <point x="962" y="181" type="line"/>
      <point x="708" y="181" type="line"/>
      <point x="708" y="1481" type="line"/>
      <point x="439" y="1481" type="line"/>
      <point x="401" y="1405"/>
      <point x="334" y="1342"/>
      <point x="189" y="1306" type="curve"/>
      <point x="189" y="1156" type="line"/>
      <point x="468" y="1240" type="line"/>
      <point x="468" y="181" type="line"/>
      <point x="212" y="181" type="line"/>
    </contour>
  </outline>
</glyph>
<glyph name="two" format="1">
  <advance width="1145"/>
  <unicode hex="0032"/>
  <outline>
    <contour>
      <point x="85" y="0" type="line"/>
      <point x="1066" y="0" type="line"/>
      <point x="1066" y="181" type="line"/>
      <point x="387" y="181" type="line"/>
      <point x="781" y="530"/>
      <point x="1060" y="803"/>
      <point x="1060" y="1096" type="curve" smooth="yes"/>
      <point x="1060" y="1345"/>
      <point x="889" y="1503"/>
      <point x="568" y="1503" type="curve" smooth="yes"/>
      <point x="401" y="1503"/>
      <point x="184" y="1436"/>
      <point x="109" y="1370" type="curve"/>
      <point x="157" y="1198" type="line"/>
      <point x="220" y="1252"/>
      <point x="413" y="1321"/>
      <point x="530" y="1321" type="curve" smooth="yes"/>
      <point x="759" y="1321"/>
      <point x="823" y="1229"/>
      <point x="823" y="1087" type="curve" smooth="yes"/>
      <point x="823" y="858"/>
      <point x="418" y="468"/>
      <point x="85" y="179" type="curve"/>
    </contour>
  </outline>
</glyph>
<glyph name="three" format="1">
  <advance width="1170"/>
  <unicode hex="0033"/>
  <outline>
    <contour>
      <point x="524" y="-23" type="curve" smooth="yes"/>
      <point x="884" y="-23"/>
      <point x="1097" y="147"/>
      <point x="1097" y="407" type="curve" smooth="yes"/>
      <point x="1097" y="620"/>
      <point x="928" y="750"/>
      <point x="767" y="788" type="curve"/>
      <point x="896" y="827"/>
      <point x="1043" y="924"/>
      <point x="1043" y="1115" type="curve" smooth="yes"/>
      <point x="1043" y="1318"/>
      <point x="882" y="1505"/>
      <point x="517" y="1505" type="curve" smooth="yes"/>
      <point x="343" y="1505"/>
      <point x="174" y="1460"/>
      <point x="80" y="1393" type="curve"/>
      <point x="80" y="1219" type="line"/>
      <point x="136" y="1219" type="line"/>
      <point x="136" y="1219"/>
      <point x="268" y="1319"/>
      <point x="490" y="1319" type="curve" smooth="yes"/>
      <point x="713" y="1319"/>
      <point x="802" y="1239"/>
      <point x="802" y="1093" type="curve" smooth="yes"/>
      <point x="802" y="971"/>
      <point x="711" y="865"/>
      <point x="464" y="865" type="curve" smooth="yes"/>
      <point x="344" y="865" type="line"/>
      <point x="344" y="712" type="line"/>
      <point x="464" y="712" type="line" smooth="yes"/>
      <point x="742" y="712"/>
      <point x="855" y="585"/>
      <point x="855" y="429" type="curve" smooth="yes"/>
      <point x="855" y="259"/>
      <point x="731" y="158"/>
      <point x="497" y="158" type="curve" smooth="yes"/>
      <point x="227" y="158"/>
      <point x="136" y="267"/>
      <point x="136" y="267" type="curve"/>
      <point x="80" y="267" type="line"/>
      <point x="80" y="89" type="line"/>
      <point x="142" y="46"/>
      <point x="301" y="-23"/>
    </contour>
  </outline>
</glyph>
<glyph name="four" format="1">
  <advance width="1235"/>
  <unicode hex="0034"/>
  <outline>
    <contour>
      <point x="749" y="0" type="line"/>
      <point x="989" y="0" type="line"/>
      <point x="989" y="226" type="line"/>
      <point x="1171" y="226" type="line"/>
      <point x="1171" y="398" type="line"/>
      <point x="989" y="398" type="line"/>
      <point x="989" y="1481" type="line"/>
      <point x="635" y="1481" type="line"/>
      <point x="73" y="403" type="line"/>
      <point x="73" y="226" type="line"/>
      <point x="749" y="226" type="line"/>
    </contour>
    <contour>
      <point x="306" y="398" type="line"/>
      <point x="749" y="1318" type="line"/>
      <point x="749" y="398" type="line"/>
    </contour>
  </outline>
</glyph>
<glyph name="five" format="1">
  <advance width="1183"/>
  <unicode hex="0035"/>
  <outline>
    <contour>
      <point x="575" y="-23" type="curve" smooth="yes"/>
      <point x="929" y="-23"/>
      <point x="1121" y="109"/>
      <point x="1121" y="427" type="curve" smooth="yes"/>
      <point x="1121" y="765"/>
      <point x="824" y="867"/>
      <point x="523" y="890" type="curve" smooth="yes"/>
      <point x="499" y="892"/>
      <point x="365" y="898"/>
      <point x="365" y="900" type="curve" smooth="yes"/>
      <point x="365" y="1300" type="line"/>
      <point x="1021" y="1300" type="line"/>
      <point x="1021" y="1481" type="line"/>
      <point x="162" y="1481" type="line"/>
      <point x="162" y="733" type="line"/>
      <point x="162" y="733"/>
      <point x="322" y="720"/>
      <point x="456" y="707" type="curve" smooth="yes"/>
      <point x="749" y="678"/>
      <point x="880" y="583"/>
      <point x="880" y="419" type="curve" smooth="yes"/>
      <point x="880" y="271"/>
      <point x="813" y="158"/>
      <point x="547" y="158" type="curve" smooth="yes"/>
      <point x="300" y="158"/>
      <point x="175" y="267"/>
      <point x="175" y="267" type="curve"/>
      <point x="118" y="267" type="line"/>
      <point x="118" y="90" type="line"/>
      <point x="216" y="24"/>
      <point x="366" y="-23"/>
    </contour>
  </outline>
</glyph>
<glyph name="six" format="1">
  <advance width="1210"/>
  <unicode hex="0036"/>
  <outline>
    <contour>
      <point x="624" y="-23" type="curve" smooth="yes"/>
      <point x="935" y="-23"/>
      <point x="1138" y="160"/>
      <point x="1138" y="465" type="curve" smooth="yes"/>
      <point x="1138" y="752"/>
      <point x="923" y="910"/>
      <point x="684" y="910" type="curve" smooth="yes"/>
      <point x="595" y="910"/>
      <point x="439" y="868"/>
      <point x="363" y="773" type="curve"/>
      <point x="425" y="1072"/>
      <point x="610" y="1285"/>
      <point x="955" y="1314" type="curve"/>
      <point x="919" y="1482" type="line"/>
      <point x="390" y="1479"/>
      <point x="106" y="1042"/>
      <point x="106" y="551" type="curve" smooth="yes"/>
      <point x="106" y="202"/>
      <point x="310" y="-23"/>
    </contour>
    <contour>
      <point x="613" y="158" type="curve" smooth="yes"/>
      <point x="450" y="158"/>
      <point x="345" y="285"/>
      <point x="345" y="431" type="curve" smooth="yes"/>
      <point x="345" y="551"/>
      <point x="410" y="725"/>
      <point x="631" y="727" type="curve"/>
      <point x="790" y="727"/>
      <point x="907" y="612"/>
      <point x="907" y="463" type="curve" smooth="yes"/>
      <point x="907" y="291"/>
      <point x="827" y="158"/>
    </contour>
  </outline>
</glyph>
<glyph name="seven" format="1">
  <advance width="1132"/>
  <unicode hex="0037"/>
  <outline>
    <contour>
      <point x="249" y="0" type="line"/>
      <point x="500" y="0" type="line"/>
      <point x="1057" y="1305" type="line"/>
      <point x="1057" y="1481" type="line"/>
      <point x="118" y="1481" type="line"/>
      <point x="118" y="1142" type="line"/>
      <point x="328" y="1142" type="line"/>
      <point x="328" y="1300" type="line"/>
      <point x="809" y="1300" type="line"/>
    </contour>
  </outline>
</glyph>
<glyph name="eight" format="1">
  <advance width="1284"/>
  <unicode hex="0038"/>
  <outline>
    <contour>
      <point x="641" y="-23" type="curve" smooth="yes"/>
      <point x="982" y="-23"/>
      <point x="1188" y="162"/>
      <point x="1188" y="420" type="curve" smooth="yes"/>
      <point x="1188" y="584"/>
      <point x="1057" y="706"/>
      <point x="889" y="785" type="curve"/>
      <point x="1082" y="891"/>
      <point x="1148" y="1046"/>
      <point x="1148" y="1161" type="curve" smooth="yes"/>
      <point x="1148" y="1354"/>
      <point x="964" y="1503"/>
      <point x="643" y="1503" type="curve" smooth="yes"/>
      <point x="336" y="1503"/>
      <point x="137" y="1342"/>
      <point x="137" y="1148" type="curve" smooth="yes"/>
      <point x="137" y="1027"/>
      <point x="209" y="897"/>
      <point x="436" y="781" type="curve"/>
      <point x="275" y="702"/>
      <point x="96" y="586"/>
      <point x="96" y="381" type="curve" smooth="yes"/>
      <point x="96" y="173"/>
      <point x="293" y="-23"/>
    </contour>
    <contour>
      <point x="653" y="153" type="curve" smooth="yes"/>
      <point x="436" y="153"/>
      <point x="327" y="257"/>
      <point x="327" y="409" type="curve" smooth="yes"/>
      <point x="327" y="567"/>
      <point x="510" y="670"/>
      <point x="579" y="706" type="curve"/>
      <point x="857" y="625"/>
      <point x="947" y="496"/>
      <point x="947" y="388" type="curve" smooth="yes"/>
      <point x="947" y="277"/>
      <point x="866" y="153"/>
    </contour>
    <contour>
      <point x="746" y="852" type="curve"/>
      <point x="581" y="909"/>
      <point x="377" y="1021"/>
      <point x="377" y="1144" type="curve" smooth="yes"/>
      <point x="377" y="1303"/>
      <point x="564" y="1330"/>
      <point x="654" y="1330" type="curve" smooth="yes"/>
      <point x="806" y="1330"/>
      <point x="926" y="1262"/>
      <point x="926" y="1141" type="curve" smooth="yes"/>
      <point x="926" y="986"/>
      <point x="792" y="891"/>
    </contour>
  </outline>
</glyph>
<glyph name="nine" format="1">
  <advance width="1227"/>
  <unicode hex="0039"/>
  <outline>
    <contour>
      <point x="315" y="-26" type="line"/>
      <point x="844" y="-23"/>
      <point x="1129" y="421"/>
      <point x="1129" y="912" type="curve" smooth="yes"/>
      <point x="1129" y="1261"/>
      <point x="926" y="1477"/>
      <point x="612" y="1477" type="curve" smooth="yes"/>
      <point x="301" y="1477"/>
      <point x="96" y="1295"/>
      <point x="96" y="990" type="curve" smooth="yes"/>
      <point x="96" y="703"/>
      <point x="319" y="546"/>
      <point x="558" y="546" type="curve" smooth="yes"/>
      <point x="647" y="546"/>
      <point x="797" y="586"/>
      <point x="873" y="681" type="curve"/>
      <point x="811" y="382"/>
      <point x="624" y="170"/>
      <point x="279" y="141" type="curve"/>
    </contour>
    <contour>
      <point x="603" y="727" type="curve"/>
      <point x="444" y="727"/>
      <point x="329" y="848"/>
      <point x="329" y="997" type="curve" smooth="yes"/>
      <point x="329" y="1169"/>
      <point x="409" y="1298"/>
      <point x="623" y="1298" type="curve" smooth="yes"/>
      <point x="786" y="1298"/>
      <point x="886" y="1158"/>
      <point x="886" y="1012" type="curve" smooth="yes"/>
      <point x="886" y="892"/>
      <point x="824" y="729"/>
    </contour>
  </outline>
</glyph>
<glyph name="colon" format="1">
  <advance width="497"/>
  <unicode hex="003A"/>
  <outline>
    <contour>
      <point x="249" y="0" type="curve" smooth="yes"/>
      <point x="342" y="0"/>
      <point x="415" y="74"/>
      <point x="415" y="167" type="curve" smooth="yes"/>
      <point x="415" y="260"/>
      <point x="342" y="333"/>
      <point x="249" y="333" type="curve" smooth="yes"/>
      <point x="156" y="333"/>
      <point x="82" y="260"/>
      <point x="82" y="167" type="curve" smooth="yes"/>
      <point x="82" y="74"/>
      <point x="156" y="0"/>
    </contour>
    <contour>
      <point x="249" y="700" type="curve" smooth="yes"/>
      <point x="342" y="700"/>
      <point x="415" y="772"/>
      <point x="415" y="865" type="curve" smooth="yes"/>
      <point x="415" y="958"/>
      <point x="342" y="1032"/>
      <point x="249" y="1032" type="curve" smooth="yes"/>
      <point x="156" y="1032"/>
      <point x="82" y="958"/>
      <point x="82" y="865" type="curve" smooth="yes"/>
      <point x="82" y="772"/>
      <point x="156" y="700"/>
    </contour>
  </outline>
</glyph>
<glyph name="semicolon" format="1">
  <advance width="549"/>
  <unicode hex="003B"/>
  <outline>
    <contour>
      <point x="155" y="-281" type="line"/>
      <point x="296" y="-281" type="line"/>
      <point x="409" y="252" type="line"/>
      <point x="184" y="252" type="line"/>
    </contour>
    <contour>
      <point x="277" y="700" type="curve" smooth="yes"/>
      <point x="370" y="700"/>
      <point x="443" y="772"/>
      <point x="443" y="865" type="curve" smooth="yes"/>
      <point x="443" y="958"/>
      <point x="370" y="1032"/>
      <point x="277" y="1032" type="curve" smooth="yes"/>
      <point x="184" y="1032"/>
      <point x="110" y="958"/>
      <point x="110" y="865" type="curve" smooth="yes"/>
      <point x="110" y="772"/>
      <point x="184" y="700"/>
    </contour>
  </outline>
</glyph>
<glyph name="less" format="1">
  <advance width="1285"/>
  <unicode hex="003C"/>
  <outline>
    <contour>
      <point x="1249" y="-14" type="line"/>
      <point x="1249" y="233" type="line"/>
      <point x="382" y="573" type="line"/>
      <point x="1249" y="912" type="line"/>
      <point x="1249" y="1160" type="line"/>
      <point x="33" y="677" type="line"/>
      <point x="33" y="470" type="line"/>
    </contour>
  </outline>
</glyph>
<glyph name="equal" format="1">
  <advance width="1337"/>
  <unicode hex="003D"/>
  <outline>
    <contour>
      <point x="90" y="229" type="line"/>
      <point x="1247" y="229" type="line"/>
      <point x="1247" y="444" type="line"/>
      <point x="90" y="444" type="line"/>
    </contour>
    <contour>
      <point x="90" y="706" type="line"/>
      <point x="1247" y="706" type="line"/>
      <point x="1247" y="920" type="line"/>
      <point x="90" y="920" type="line"/>
    </contour>
  </outline>
</glyph>
<glyph name="question" format="1">
  <advance width="942"/>
  <unicode hex="003F"/>
  <outline>
    <contour>
      <point x="419" y="495" type="line"/>
      <point x="610" y="669"/>
      <point x="875" y="876"/>
      <point x="875" y="1138" type="curve" smooth="yes"/>
      <point x="875" y="1338"/>
      <point x="753" y="1503"/>
      <point x="467" y="1503" type="curve" smooth="yes"/>
      <point x="286" y="1503"/>
      <point x="132" y="1418"/>
      <point x="70" y="1382" type="curve"/>
      <point x="70" y="1192" type="line"/>
      <point x="128" y="1235"/>
      <point x="300" y="1321"/>
      <point x="430" y="1321" type="curve" smooth="yes"/>
      <point x="574" y="1321"/>
      <point x="654" y="1242"/>
      <point x="654" y="1111" type="curve" smooth="yes"/>
      <point x="654" y="972"/>
      <point x="488" y="742"/>
      <point x="347" y="553" type="curve"/>
    </contour>
    <contour>
      <point x="360" y="-8" type="curve" smooth="yes"/>
      <point x="453" y="-8"/>
      <point x="527" y="65"/>
      <point x="527" y="158" type="curve" smooth="yes"/>
      <point x="527" y="251"/>
      <point x="453" y="325"/>
      <point x="360" y="325" type="curve" smooth="yes"/>
      <point x="267" y="325"/>
      <point x="194" y="251"/>
      <point x="194" y="158" type="curve" smooth="yes"/>
      <point x="194" y="65"/>
      <point x="267" y="-8"/>
    </contour>
  </outline>
</glyph>
<glyph name="A" format="1">
  <advance width="1309"/>
  <unicode hex="0041"/>
  <outline>
    <contour>
      <point x="10" y="0" type="line"/>
      <point x="244" y="0" type="line"/>
      <point x="365" y="365" type="line"/>
      <point x="945" y="365" type="line"/>
      <point x="1065" y="0" type="line"/>
      <point x="1299" y="0" type="line"/>
      <point x="785" y="1481" type="line"/>
      <point x="509" y="1481" type="line"/>
    </contour>
    <contour>
      <point x="422" y="542" type="line"/>
      <point x="649" y="1264" type="line"/>
      <point x="887" y="542" type="line"/>
    </contour>
  </outline>
</glyph>
<glyph name="B" format="1">
  <advance width="1295"/>
  <unicode hex="0042"/>
  <outline>
    <contour>
      <point x="146" y="0" type="line"/>
      <point x="666" y="0" type="line" smooth="yes"/>
      <point x="1004" y="0"/>
      <point x="1251" y="127"/>
      <point x="1251" y="449" type="curve" smooth="yes"/>
      <point x="1251" y="631"/>
      <point x="1122" y="778"/>
      <point x="930" y="808" type="curve"/>
      <point x="930" y="814" type="line"/>
      <point x="1076" y="858"/>
      <point x="1151" y="975"/>
      <point x="1151" y="1096" type="curve" smooth="yes"/>
      <point x="1151" y="1397"/>
      <point x="933" y="1481"/>
      <point x="562" y="1481" type="curve" smooth="yes"/>
      <point x="146" y="1481" type="line"/>
    </contour>
    <contour>
      <point x="386" y="181" type="line"/>
      <point x="386" y="681" type="line"/>
      <point x="653" y="681" type="line" smooth="yes"/>
      <point x="838" y="681"/>
      <point x="1011" y="617"/>
      <point x="1011" y="452" type="curve" smooth="yes"/>
      <point x="1011" y="327"/>
      <point x="956" y="181"/>
      <point x="689" y="181" type="curve" smooth="yes"/>
    </contour>
    <contour>
      <point x="386" y="862" type="line"/>
      <point x="386" y="1300" type="line"/>
      <point x="609" y="1300" type="line" smooth="yes"/>
      <point x="817" y="1300"/>
      <point x="910" y="1225"/>
      <point x="910" y="1090" type="curve" smooth="yes"/>
      <point x="910" y="948"/>
      <point x="828" y="862"/>
      <point x="607" y="862" type="curve" smooth="yes"/>
    </contour>
  </outline>
</glyph>
<glyph name="C" format="1">
  <advance width="1261"/>
  <unicode hex="0043"/>
  <outline>
    <contour>
      <point x="772" y="-23" type="curve" smooth="yes"/>
      <point x="968" y="-23"/>
      <point x="1110" y="32"/>
      <point x="1209" y="104" type="curve"/>
      <point x="1167" y="275" type="line"/>
      <point x="1167" y="275"/>
      <point x="1012" y="159"/>
      <point x="790" y="159" type="curve" smooth="yes"/>
      <point x="501" y="159"/>
      <point x="339" y="325"/>
      <point x="339" y="742" type="curve" smooth="yes"/>
      <point x="339" y="1184"/>
      <point x="519" y="1321"/>
      <point x="787" y="1321" type="curve" smooth="yes"/>
      <point x="1027" y="1321"/>
      <point x="1158" y="1206"/>
      <point x="1158" y="1206" type="curve"/>
      <point x="1208" y="1378" type="line"/>
      <point x="1106" y="1449"/>
      <point x="973" y="1503"/>
      <point x="780" y="1503" type="curve" smooth="yes"/>
      <point x="349" y="1503"/>
      <point x="99" y="1237"/>
      <point x="99" y="744" type="curve" smooth="yes"/>
      <point x="99" y="256"/>
      <point x="301" y="-23"/>
    </contour>
  </outline>
</glyph>
<glyph name="D" format="1">
  <advance width="1437"/>
  <unicode hex="0044"/>
  <outline>
    <contour>
      <point x="386" y="181" type="line"/>
      <point x="386" y="1300" type="line"/>
      <point x="612" y="1300" type="line" smooth="yes"/>
      <point x="917" y="1300"/>
      <point x="1103" y="1112"/>
      <point x="1103" y="740" type="curve" smooth="yes"/>
      <point x="1103" y="346"/>
      <point x="965" y="181"/>
      <point x="600" y="181" type="curve" smooth="yes"/>
    </contour>
    <contour>
      <point x="146" y="0" type="line"/>
      <point x="564" y="0" type="line" smooth="yes"/>
      <point x="1049" y="0"/>
      <point x="1339" y="217"/>
      <point x="1339" y="740" type="curve" smooth="yes"/>
      <point x="1339" y="1259"/>
      <point x="1052" y="1481"/>
      <point x="559" y="1481" type="curve" smooth="yes"/>
      <point x="146" y="1481" type="line"/>
    </contour>
  </outline>
</glyph>
<glyph name="E" format="1">
  <advance width="1079"/>
  <unicode hex="0045"/>
  <outline>
    <contour>
      <point x="146" y="0" type="line"/>
      <point x="998" y="0" type="line"/>
      <point x="998" y="181" type="line"/>
      <point x="386" y="181" type="line"/>
      <point x="386" y="694" type="line"/>
      <point x="917" y="694" type="line"/>
      <point x="917" y="875" type="line"/>
      <point x="386" y="875" type="line"/>
      <point x="386" y="1301" type="line"/>
      <point x="998" y="1301" type="line"/>
      <point x="998" y="1481" type="line"/>
      <point x="146" y="1481" type="line"/>
    </contour>
  </outline>
</glyph>
<glyph name="F" format="1">
  <advance width="1067"/>
  <unicode hex="0046"/>
  <outline>
    <contour>
      <point x="146" y="0" type="line"/>
      <point x="386" y="0" type="line"/>
      <point x="386" y="687" type="line"/>
      <point x="981" y="687" type="line"/>
      <point x="981" y="868" type="line"/>
      <point x="386" y="868" type="line"/>
      <point x="386" y="1300" type="line"/>
      <point x="1035" y="1300" type="line"/>
      <point x="1035" y="1481" type="line"/>
      <point x="146" y="1481" type="line"/>
    </contour>
  </outline>
</glyph>
<glyph name="I" format="1">
  <advance width="833"/>
  <unicode hex="0049"/>
  <outline>
    <contour>
      <point x="84" y="0" type="line"/>
      <point x="733" y="0" type="line"/>
      <point x="733" y="181" type="line"/>
      <point x="529" y="181" type="line"/>
      <point x="529" y="1300" type="line"/>
      <point x="733" y="1300" type="line"/>
      <point x="733" y="1481" type="line"/>
      <point x="84" y="1481" type="line"/>
      <point x="84" y="1300" type="line"/>
      <point x="289" y="1300" type="line"/>
      <point x="289" y="181" type="line"/>
      <point x="84" y="181" type="line"/>
    </contour>
  </outline>
</glyph>
<glyph name="J" format="1">
  <advance width="920"/>
  <unicode hex="004A"/>
  <outline>
    <contour>
      <point x="350" y="-19" type="curve" smooth="yes"/>
      <point x="663" y="-19"/>
      <point x="776" y="139"/>
      <point x="776" y="417" type="curve" smooth="yes"/>
      <point x="776" y="1481" type="line"/>
      <point x="258" y="1481" type="line"/>
      <point x="258" y="1300" type="line"/>
      <point x="536" y="1300" type="line"/>
      <point x="536" y="464" type="line" smooth="yes"/>
      <point x="536" y="243"/>
      <point x="492" y="164"/>
      <point x="348" y="164" type="curve" smooth="yes"/>
      <point x="277" y="164"/>
      <point x="192" y="191"/>
      <point x="108" y="227" type="curve"/>
      <point x="58" y="60" type="line"/>
      <point x="82" y="47"/>
      <point x="181" y="-19"/>
    </contour>
  </outline>
</glyph>
<glyph name="K" format="1">
  <advance width="1319"/>
  <unicode hex="004B"/>
  <outline>
    <contour>
      <point x="146" y="0" type="line"/>
      <point x="386" y="0" type="line"/>
      <point x="386" y="482" type="line"/>
      <point x="616" y="728" type="line"/>
      <point x="684" y="613" type="line" smooth="yes"/>
      <point x="778" y="455"/>
      <point x="952" y="159"/>
      <point x="1045" y="0" type="curve"/>
      <point x="1319" y="0" type="line"/>
      <point x="786" y="866" type="line"/>
      <point x="1293" y="1481" type="line"/>
      <point x="996" y="1481" type="line"/>
      <point x="996" y="1481"/>
      <point x="677" y="1091"/>
      <point x="629" y="1029" type="curve"/>
      <point x="387" y="746" type="line"/>
      <point x="386" y="746" type="line"/>
      <point x="386" y="1481" type="line"/>
      <point x="146" y="1481" type="line"/>
    </contour>
  </outline>
</glyph>
<glyph name="L" format="1">
  <advance width="1052"/>
  <unicode hex="004C"/>
  <outline>
    <contour>
      <point x="146" y="0" type="line"/>
      <point x="1049" y="0" type="line"/>
      <point x="1049" y="181" type="line"/>
      <point x="386" y="181" type="line"/>
      <point x="386" y="1481" type="line"/>
      <point x="146" y="1481" type="line"/>
    </contour>
  </outline>
</glyph>
<glyph name="M" format="1">
  <advance width="1663"/>
  <unicode hex="004D"/>
  <outline>
    <contour>
      <point x="146" y="0" type="line"/>
      <point x="387" y="0" type="line"/>
      <point x="387" y="862" type="line"/>
      <point x="383" y="1056" type="line"/>
      <point x="740" y="404" type="line"/>
      <point x="925" y="404" type="line"/>
      <point x="1284" y="1056" type="line"/>
      <point x="1277" y="862" type="line"/>
      <point x="1277" y="0" type="line"/>
      <point x="1518" y="0" type="line"/>
      <point x="1518" y="1481" type="line"/>
      <point x="1279" y="1481" type="line"/>
      <point x="840" y="669" type="line"/>
      <point x="400" y="1481" type="line"/>
      <point x="146" y="1481" type="line"/>
    </contour>
  </outline>
</glyph>
<glyph name="O" format="1">
  <advance width="1551"/>
  <unicode hex="004F"/>
  <outline>
    <contour>
      <point x="777" y="158" type="curve" smooth="yes"/>
      <point x="423" y="158"/>
      <point x="339" y="440"/>
      <point x="339" y="740" type="curve" smooth="yes"/>
      <point x="339" y="1041"/>
      <point x="422" y="1324"/>
      <point x="777" y="1324" type="curve" smooth="yes"/>
      <point x="1124" y="1324"/>
      <point x="1213" y="1037"/>
      <point x="1213" y="740" type="curve" smooth="yes"/>
      <point x="1213" y="451"/>
      <point x="1124" y="158"/>
    </contour>
    <contour>
      <point x="777" y="-23" type="curve" smooth="yes"/>
      <point x="1238" y="-23"/>
      <point x="1453" y="273"/>
      <point x="1453" y="740" type="curve" smooth="yes"/>
      <point x="1453" y="1212"/>
      <point x="1237" y="1503"/>
      <point x="777" y="1503" type="curve" smooth="yes"/>
      <point x="317" y="1503"/>
      <point x="99" y="1211"/>
      <point x="99" y="740" type="curve" smooth="yes"/>
      <point x="99" y="272"/>
      <point x="316" y="-23"/>
    </contour>
  </outline>
</glyph>
<glyph name="P" format="1">
  <advance width="1209"/>
  <unicode hex="0050"/>
  <outline>
    <contour>
      <point x="146" y="0" type="line"/>
      <point x="386" y="0" type="line"/>
      <point x="386" y="587" type="line"/>
      <point x="562" y="587" type="line" smooth="yes"/>
      <point x="914" y="587"/>
      <point x="1144" y="717"/>
      <point x="1144" y="1016" type="curve" smooth="yes"/>
      <point x="1144" y="1357"/>
      <point x="928" y="1481"/>
      <point x="587" y="1481" type="curve" smooth="yes"/>
      <point x="146" y="1481" type="line"/>
    </contour>
    <contour>
      <point x="386" y="766" type="line"/>
      <point x="386" y="1300" type="line"/>
      <point x="579" y="1300" type="line" smooth="yes"/>
      <point x="839" y="1300"/>
      <point x="903" y="1206"/>
      <point x="903" y="1017" type="curve" smooth="yes"/>
      <point x="903" y="805"/>
      <point x="763" y="766"/>
      <point x="562" y="766" type="curve" smooth="yes"/>
    </contour>
  </outline>
</glyph>
<glyph name="Q" format="1">
  <advance width="1551"/>
  <unicode hex="0051"/>
  <outline>
    <contour>
      <point x="1014" y="-402" type="line"/>
      <point x="1185.0" y="-326.0" type="line"/>
      <point x="845" y="376" type="line"/>
      <point x="846" y="375"/>
      <point x="624" y="376"/>
      <point x="624" y="376" type="curve"/>
    </contour>
    <component base="O"/>
  </outline>
</glyph>
<glyph name="R" format="1">
  <advance width="1328"/>
  <unicode hex="0052"/>
  <outline>
    <contour>
      <point x="146" y="0" type="line"/>
      <point x="386" y="0" type="line"/>
      <point x="386" y="648" type="line"/>
      <point x="692" y="648" type="line"/>
      <point x="1036" y="0" type="line"/>
      <point x="1279" y="0" type="line"/>
      <point x="1279" y="54" type="line"/>
      <point x="926" y="677" type="line"/>
      <point x="1142" y="752"/>
      <point x="1208" y="876"/>
      <point x="1208" y="1082" type="curve" smooth="yes"/>
      <point x="1208" y="1436"/>
      <point x="877" y="1481"/>
      <point x="667" y="1481" type="curve" smooth="yes"/>
      <point x="146" y="1481" type="line"/>
    </contour>
    <contour>
      <point x="386" y="828" type="line"/>
      <point x="386" y="1300" type="line"/>
      <point x="672" y="1300" type="line" smooth="yes"/>
      <point x="894" y="1300"/>
      <point x="968" y="1206"/>
      <point x="968" y="1060" type="curve" smooth="yes"/>
      <point x="968" y="899"/>
      <point x="864" y="828"/>
      <point x="668" y="828" type="curve" smooth="yes"/>
    </contour>
  </outline>
</glyph>
<glyph name="S" format="1">
  <advance width="1255"/>
  <unicode hex="0053"/>
  <outline>
    <contour>
      <point x="597" y="-19" type="curve" smooth="yes"/>
      <point x="925" y="-19"/>
      <point x="1177" y="135"/>
      <point x="1177" y="407" type="curve" smooth="yes"/>
      <point x="1177" y="669"/>
      <point x="1047" y="759"/>
      <point x="628" y="859" type="curve"/>
      <point x="408" y="905"/>
      <point x="330" y="972"/>
      <point x="330" y="1080" type="curve" smooth="yes"/>
      <point x="330" y="1211"/>
      <point x="441" y="1324"/>
      <point x="662" y="1324" type="curve" smooth="yes"/>
      <point x="797" y="1324"/>
      <point x="951" y="1277"/>
      <point x="1071" y="1200" type="curve"/>
      <point x="1099" y="1200" type="line"/>
      <point x="1125" y="1384" type="line"/>
      <point x="997" y="1456"/>
      <point x="828" y="1503"/>
      <point x="656" y="1503" type="curve" smooth="yes"/>
      <point x="340" y="1503"/>
      <point x="111" y="1333"/>
      <point x="111" y="1064" type="curve" smooth="yes"/>
      <point x="111" y="813"/>
      <point x="261" y="725"/>
      <point x="609" y="648" type="curve" smooth="yes"/>
      <point x="889" y="586"/>
      <point x="939" y="503"/>
      <point x="939" y="379" type="curve" smooth="yes"/>
      <point x="939" y="270"/>
      <point x="856" y="157"/>
      <point x="603" y="157" type="curve" smooth="yes"/>
      <point x="462" y="157"/>
      <point x="257" y="202"/>
      <point x="142" y="321" type="curve"/>
      <point x="112" y="321" type="line"/>
      <point x="80" y="126" type="line"/>
      <point x="215" y="37"/>
      <point x="381" y="-19"/>
    </contour>
  </outline>
</glyph>
<glyph name="T" format="1">
  <advance width="1121"/>
  <unicode hex="0054"/>
  <outline>
    <contour>
      <point x="442" y="0" type="line"/>
      <point x="682" y="0" type="line"/>
      <point x="682" y="1300" type="line"/>
      <point x="1117" y="1300" type="line"/>
      <point x="1117" y="1481" type="line"/>
      <point x="5" y="1481" type="line"/>
      <point x="5" y="1300" type="line"/>
      <point x="442" y="1300" type="line"/>
    </contour>
  </outline>
</glyph>
<glyph name="U" format="1">
  <advance width="1391"/>
  <unicode hex="0055"/>
  <outline>
    <contour>
      <point x="694" y="-23" type="curve" smooth="yes"/>
      <point x="1066" y="-23"/>
      <point x="1267" y="166"/>
      <point x="1267" y="476" type="curve" smooth="yes"/>
      <point x="1267" y="1481" type="line"/>
      <point x="1026" y="1481" type="line"/>
      <point x="1026" y="468" type="line" smooth="yes"/>
      <point x="1026" y="235"/>
      <point x="895" y="158"/>
      <point x="696" y="158" type="curve" smooth="yes"/>
      <point x="495" y="158"/>
      <point x="365" y="234"/>
      <point x="365" y="467" type="curve" smooth="yes"/>
      <point x="365" y="1481" type="line"/>
      <point x="124" y="1481" type="line"/>
      <point x="124" y="475" type="line" smooth="yes"/>
      <point x="124" y="161"/>
      <point x="338" y="-23"/>
    </contour>
  </outline>
</glyph>
<glyph name="V" format="1">
  <advance width="1355"/>
  <unicode hex="0056"/>
  <outline>
    <contour>
      <point x="536" y="0" type="line"/>
      <point x="832" y="0" type="line"/>
      <point x="1371" y="1481" type="line"/>
      <point x="1112" y="1481" type="line"/>
      <point x="743" y="410" type="line"/>
      <point x="684" y="239" type="line"/>
      <point x="681" y="239" type="line"/>
      <point x="622" y="410" type="line"/>
      <point x="245" y="1481" type="line"/>
      <point x="-13" y="1481" type="line"/>
    </contour>
  </outline>
</glyph>
<glyph name="W" format="1">
  <advance width="1988"/>
  <unicode hex="0057"/>
  <outline>
    <contour>
      <point x="403" y="0" type="line"/>
      <point x="643" y="0" type="line"/>
      <point x="1002" y="1224" type="line"/>
      <point x="1338" y="0" type="line"/>
      <point x="1581" y="0" type="line"/>
      <point x="1984" y="1481" type="line"/>
      <point x="1746" y="1481" type="line"/>
      <point x="1538" y="664" type="line"/>
      <point x="1464" y="363" type="line"/>
      <point x="1378" y="677" type="line"/>
      <point x="1149" y="1481" type="line"/>
      <point x="856" y="1481" type="line"/>
      <point x="619" y="666" type="line"/>
      <point x="533" y="361" type="line"/>
      <point x="530" y="361" type="line"/>
      <point x="455" y="670" type="line"/>
      <point x="253" y="1481" type="line"/>
      <point x="6" y="1481" type="line"/>
    </contour>
  </outline>
</glyph>
<glyph name="Y" format="1">
  <advance width="1310"/>
  <unicode hex="0059"/>
  <outline>
    <contour>
      <point x="531" y="0" type="line"/>
      <point x="772" y="0" type="line"/>
      <point x="772" y="670" type="line"/>
      <point x="1359" y="1481" type="line"/>
      <point x="1087" y="1481" type="line"/>
      <point x="659" y="853" type="line"/>
      <point x="227" y="1481" type="line"/>
      <point x="-48" y="1481" type="line"/>
      <point x="531" y="659" type="line"/>
    </contour>
  </outline>
</glyph>
<glyph name="Z" format="1">
  <advance width="1139"/>
  <unicode hex="005A"/>
  <outline>
    <contour>
      <point x="100" y="0" type="line"/>
      <point x="1081" y="0" type="line"/>
      <point x="1081" y="181" type="line"/>
      <point x="377" y="181" type="line"/>
      <point x="1046" y="1301" type="line"/>
      <point x="1046" y="1481" type="line"/>
      <point x="135" y="1481" type="line"/>
      <point x="135" y="1300" type="line"/>
      <point x="773" y="1300" type="line"/>
      <point x="100" y="181" type="line"/>
    </contour>
  </outline>
</glyph>
<glyph name="backslash" format="1">
  <advance width="832"/>
  <unicode hex="005C"/>
  <outline>
    <contour>
      <point x="518" y="0" type="line"/>
      <point x="785" y="0" type="line"/>
      <point x="315" y="1481" type="line"/>
      <point x="46" y="1481" type="line"/>
    </contour>
  </outline>
</glyph>
<glyph name="bracketright" format="1">
  <advance width="677"/>
  <unicode hex="005D"/>
  <outline>
    <contour>
      <point x="81" y="-257" type="line"/>
      <point x="591" y="-257" type="line"/>
      <point x="591" y="1481" type="line"/>
      <point x="81" y="1481" type="line"/>
      <point x="81" y="1300" type="line"/>
      <point x="351" y="1300" type="line"/>
      <point x="351" y="-76" type="line"/>
      <point x="81" y="-76" type="line"/>
    </contour>
  </outline>
</glyph>
<glyph name="grave" format="1">
  <advance width="470"/>
  <unicode hex="0060"/>
  <outline>
    <contour>
      <point x="286" y="1137" type="line"/>
      <point x="440" y="1137" type="line"/>
      <point x="263" y="1481" type="line"/>
      <point x="30" y="1481" type="line"/>
    </contour>
  </outline>
</glyph>
<glyph name="b" format="1">
  <advance width="1151"/>
  <unicode hex="0062"/>
  <outline>
    <contour>
      <point x="628" y="-27" type="curve" smooth="yes"/>
      <point x="907" y="-27"/>
      <point x="1074" y="187"/>
      <point x="1074" y="536" type="curve" smooth="yes"/>
      <point x="1074" y="860"/>
      <point x="909" y="1055"/>
      <point x="660" y="1055" type="curve" smooth="yes"/>
      <point x="547" y="1055"/>
      <point x="422" y="1019"/>
      <point x="355" y="930" type="curve"/>
      <point x="355" y="1430" type="line"/>
      <point x="115" y="1430" type="line"/>
      <point x="115" y="0" type="line"/>
      <point x="355" y="0" type="line"/>
      <point x="355" y="92" type="line"/>
      <point x="404" y="30"/>
      <point x="508" y="-27"/>
    </contour>
    <contour>
      <point x="584" y="155" type="curve" smooth="yes"/>
      <point x="517" y="155"/>
      <point x="417" y="177"/>
      <point x="355" y="216" type="curve"/>
      <point x="355" y="819" type="line"/>
      <point x="393" y="852"/>
      <point x="495" y="875"/>
      <point x="564" y="875" type="curve" smooth="yes"/>
      <point x="706" y="875"/>
      <point x="838" y="772"/>
      <point x="838" y="533" type="curve" smooth="yes"/>
      <point x="838" y="313"/>
      <point x="752" y="155"/>
    </contour>
  </outline>
</glyph>
<glyph name="d" format="1">
  <advance width="1145"/>
  <unicode hex="0064"/>
  <outline>
    <contour>
      <point x="537" y="-23" type="curve" smooth="yes"/>
      <point x="657" y="-23"/>
      <point x="737" y="29"/>
      <point x="792" y="115" type="curve"/>
      <point x="792" y="0" type="line"/>
      <point x="1032" y="0" type="line"/>
      <point x="1032" y="1430" type="line"/>
      <point x="792" y="1430" type="line"/>
      <point x="792" y="961" type="line"/>
      <point x="748" y="1007"/>
      <point x="630" y="1059"/>
      <point x="520" y="1059" type="curve" smooth="yes"/>
      <point x="252" y="1059"/>
      <point x="80" y="870"/>
      <point x="80" y="516" type="curve" smooth="yes"/>
      <point x="80" y="198"/>
      <point x="260" y="-23"/>
    </contour>
    <contour>
      <point x="580" y="158" type="curve" smooth="yes"/>
      <point x="408" y="158"/>
      <point x="316" y="306"/>
      <point x="316" y="518" type="curve" smooth="yes"/>
      <point x="316" y="702"/>
      <point x="380" y="877"/>
      <point x="559" y="877" type="curve" smooth="yes"/>
      <point x="615" y="877"/>
      <point x="712" y="866"/>
      <point x="792" y="817" type="curve"/>
      <point x="792" y="216" type="line"/>
      <point x="736" y="168"/>
      <point x="623" y="158"/>
    </contour>
  </outline>
</glyph>
<glyph name="f" format="1">
  <advance width="761"/>
  <unicode hex="0066"/>
  <outline>
    <contour>
      <point x="215" y="0" type="line"/>
      <point x="455" y="0" type="line"/>
      <point x="455" y="871" type="line"/>
      <point x="714" y="871" type="line"/>
      <point x="714" y="1037" type="line"/>
      <point x="446" y="1037" type="line"/>
      <point x="446" y="1236"/>
      <point x="485" y="1268"/>
      <point x="613" y="1268" type="curve" smooth="yes"/>
      <point x="669" y="1268"/>
      <point x="742" y="1256"/>
      <point x="742" y="1256" type="curve"/>
      <point x="742" y="1430" type="line"/>
      <point x="687" y="1436"/>
      <point x="639" y="1442"/>
      <point x="566" y="1442" type="curve" smooth="yes"/>
      <point x="299" y="1442"/>
      <point x="215" y="1326"/>
      <point x="215" y="1075" type="curve" smooth="yes"/>
      <point x="215" y="1037" type="line"/>
      <point x="49" y="1037" type="line"/>
      <point x="49" y="871" type="line"/>
      <point x="215" y="871" type="line"/>
    </contour>
  </outline>
</glyph>
<glyph name="g" format="1">
  <advance width="1139"/>
  <unicode hex="0067"/>
  <outline>
    <contour>
      <point x="565" y="-391" type="curve" smooth="yes"/>
      <point x="859" y="-391"/>
      <point x="1029" y="-257"/>
      <point x="1029" y="114" type="curve" smooth="yes"/>
      <point x="1029" y="1037" type="line"/>
      <point x="789" y="1037" type="line"/>
      <point x="789" y="942" type="line"/>
      <point x="745" y="1017"/>
      <point x="624" y="1058"/>
      <point x="516" y="1058" type="curve" smooth="yes"/>
      <point x="246" y="1058"/>
      <point x="80" y="866"/>
      <point x="80" y="537" type="curve" smooth="yes"/>
      <point x="80" y="166"/>
      <point x="289" y="0"/>
      <point x="540" y="0" type="curve" smooth="yes"/>
      <point x="648" y="0"/>
      <point x="725" y="37"/>
      <point x="797" y="104" type="curve"/>
      <point x="797" y="96"/>
      <point x="797" y="86"/>
      <point x="797" y="79" type="curve" smooth="yes"/>
      <point x="793" y="-94"/>
      <point x="736" y="-211"/>
      <point x="536" y="-211" type="curve" smooth="yes"/>
      <point x="349" y="-211"/>
      <point x="210" y="-147"/>
      <point x="210" y="-147" type="curve"/>
      <point x="170" y="-310" type="line"/>
      <point x="266" y="-360"/>
      <point x="414" y="-391"/>
    </contour>
    <contour>
      <point x="585" y="178" type="curve" smooth="yes"/>
      <point x="448" y="178"/>
      <point x="316" y="256"/>
      <point x="316" y="536" type="curve" smooth="yes"/>
      <point x="316" y="802"/>
      <point x="442" y="890"/>
      <point x="569" y="890" type="curve" smooth="yes"/>
      <point x="673" y="890"/>
      <point x="746" y="855"/>
      <point x="789" y="837" type="curve"/>
      <point x="789" y="258" type="line"/>
      <point x="736" y="202"/>
      <point x="647" y="178"/>
    </contour>
  </outline>
</glyph>
<glyph name="h" format="1">
  <advance width="1128"/>
  <unicode hex="0068"/>
  <outline>
    <contour>
      <point x="115" y="0" type="line"/>
      <point x="355" y="0" type="line"/>
      <point x="355" y="742" type="line" smooth="yes"/>
      <point x="355" y="787"/>
      <point x="477" y="869"/>
      <point x="597" y="869" type="curve" smooth="yes"/>
      <point x="712" y="869"/>
      <point x="792" y="821"/>
      <point x="792" y="651" type="curve" smooth="yes"/>
      <point x="792" y="0" type="line"/>
      <point x="1032" y="0" type="line"/>
      <point x="1032" y="692" type="line" smooth="yes"/>
      <point x="1032" y="938"/>
      <point x="878" y="1059"/>
      <point x="711" y="1059" type="curve" smooth="yes"/>
      <point x="567" y="1059"/>
      <point x="417" y="1002"/>
      <point x="355" y="872" type="curve"/>
      <point x="355" y="1481" type="line"/>
      <point x="115" y="1481" type="line"/>
    </contour>
  </outline>
</glyph>
<glyph name="i" format="1">
  <advance width="524"/>
  <unicode hex="0069"/>
  <outline>
    <contour>
      <point x="141" y="0" type="line"/>
      <point x="381" y="0" type="line"/>
      <point x="381" y="1032" type="line"/>
      <point x="141" y="1032" type="line"/>
    </contour>
    <contour>
      <point x="262" y="1149" type="curve" smooth="yes"/>
      <point x="360" y="1149"/>
      <point x="409" y="1220"/>
      <point x="409" y="1289" type="curve" smooth="yes"/>
      <point x="409" y="1360"/>
      <point x="359" y="1430"/>
      <point x="262" y="1430" type="curve" smooth="yes"/>
      <point x="163" y="1430"/>
      <point x="115" y="1361"/>
      <point x="115" y="1289" type="curve" smooth="yes"/>
      <point x="115" y="1220"/>
      <point x="164" y="1149"/>
    </contour>
  </outline>
</glyph>
<glyph name="j" format="1">
  <advance width="552"/>
  <unicode hex="006A"/>
  <outline>
    <contour>
      <point x="104" y="-379" type="curve" smooth="yes"/>
      <point x="334" y="-379"/>
      <point x="421" y="-228"/>
      <point x="421" y="-8" type="curve" smooth="yes"/>
      <point x="421" y="1032" type="line"/>
      <point x="181" y="1032" type="line"/>
      <point x="181" y="18" type="line" smooth="yes"/>
      <point x="181" y="-185"/>
      <point x="117" y="-204"/>
      <point x="15" y="-204" type="curve" smooth="yes"/>
      <point x="-16" y="-204"/>
      <point x="-35" y="-203"/>
      <point x="-71" y="-200" type="curve"/>
      <point x="-71" y="-371" type="line"/>
      <point x="-39" y="-374"/>
      <point x="0" y="-379"/>
    </contour>
    <contour>
      <point x="291" y="1149" type="curve" smooth="yes"/>
      <point x="389" y="1149"/>
      <point x="438" y="1220"/>
      <point x="438" y="1289" type="curve" smooth="yes"/>
      <point x="438" y="1360"/>
      <point x="388" y="1430"/>
      <point x="291" y="1430" type="curve" smooth="yes"/>
      <point x="192" y="1430"/>
      <point x="144" y="1361"/>
      <point x="144" y="1289" type="curve" smooth="yes"/>
      <point x="144" y="1220"/>
      <point x="193" y="1149"/>
    </contour>
  </outline>
</glyph>
<glyph name="l" format="1">
  <advance width="589.933025106"/>
  <unicode hex="006C"/>
  <outline>
    <contour>
      <point x="470.933025106" y="-6" type="curve" smooth="yes"/>
      <point x="552.933025106" y="-6" type="line"/>
      <point x="552.933025106" y="174" type="line"/>
      <point x="417.933025106" y="174"/>
      <point x="355.933025106" y="172"/>
      <point x="355.933025106" y="301" type="curve" smooth="yes"/>
      <point x="355.933025106" y="1430" type="line"/>
      <point x="115.933025106" y="1430" type="line"/>
      <point x="115.933025106" y="348" type="line" smooth="yes"/>
      <point x="115.933025106" y="196"/>
      <point x="78.9330251064" y="-6"/>
    </contour>
  </outline>
</glyph>
<glyph name="m" format="1">
  <advance width="1709"/>
  <unicode hex="006D"/>
  <outline>
    <contour>
      <point x="115" y="0" type="line"/>
      <point x="355" y="0" type="line"/>
      <point x="355" y="740" type="line" smooth="yes"/>
      <point x="355" y="807"/>
      <point x="460" y="869"/>
      <point x="549" y="869" type="curve" smooth="yes"/>
      <point x="664" y="869"/>
      <point x="743" y="813"/>
      <point x="743" y="648" type="curve" smooth="yes"/>
      <point x="743" y="0" type="line"/>
      <point x="983" y="0" type="line"/>
      <point x="983" y="740" type="line" smooth="yes"/>
      <point x="983" y="779"/>
      <point x="1060" y="869"/>
      <point x="1175" y="869" type="curve" smooth="yes"/>
      <point x="1298" y="869"/>
      <point x="1371" y="807"/>
      <point x="1371" y="622" type="curve" smooth="yes"/>
      <point x="1371" y="0" type="line"/>
      <point x="1611" y="0" type="line"/>
      <point x="1611" y="679" type="line"/>
      <point x="1613" y="943"/>
      <point x="1478" y="1059"/>
      <point x="1299" y="1059" type="curve" smooth="yes"/>
      <point x="1178" y="1059"/>
      <point x="1051" y="996"/>
      <point x="962" y="876" type="curve"/>
      <point x="907" y="999"/>
      <point x="807" y="1059"/>
      <point x="692" y="1059" type="curve" smooth="yes"/>
      <point x="565" y="1059"/>
      <point x="424" y="1018"/>
      <point x="355" y="871" type="curve"/>
      <point x="355" y="1032" type="line"/>
      <point x="115" y="1032" type="line"/>
    </contour>
  </outline>
</glyph>
<glyph name="o" format="1">
  <advance width="1183"/>
  <unicode hex="006F"/>
  <outline>
    <contour>
      <point x="593" y="159" type="curve" smooth="yes"/>
      <point x="425" y="159"/>
      <point x="316" y="267"/>
      <point x="316" y="518" type="curve" smooth="yes"/>
      <point x="316" y="771"/>
      <point x="430" y="877"/>
      <point x="589" y="877" type="curve" smooth="yes"/>
      <point x="763" y="877"/>
      <point x="867" y="773"/>
      <point x="867" y="516" type="curve" smooth="yes"/>
      <point x="867" y="283"/>
      <point x="780" y="159"/>
    </contour>
    <contour>
      <point x="589" y="-23" type="curve" smooth="yes"/>
      <point x="875" y="-23"/>
      <point x="1103" y="143"/>
      <point x="1103" y="519" type="curve" smooth="yes"/>
      <point x="1103" y="897"/>
      <point x="875" y="1059"/>
      <point x="589" y="1059" type="curve" smooth="yes"/>
      <point x="315" y="1059"/>
      <point x="80" y="899"/>
      <point x="80" y="520" type="curve" smooth="yes"/>
      <point x="80" y="142"/>
      <point x="308" y="-23"/>
    </contour>
  </outline>
</glyph>
<glyph name="p" format="1">
  <advance width="1148"/>
  <unicode hex="0070"/>
  <outline>
    <contour>
      <point x="115" y="-390" type="line"/>
      <point x="355" y="-390" type="line"/>
      <point x="355" y="72" type="line"/>
      <point x="399" y="26"/>
      <point x="516" y="-26"/>
      <point x="626" y="-26" type="curve" smooth="yes"/>
      <point x="894" y="-26"/>
      <point x="1069" y="161"/>
      <point x="1069" y="515" type="curve" smooth="yes"/>
      <point x="1069" y="833"/>
      <point x="930" y="1055"/>
      <point x="653" y="1055" type="curve" smooth="yes"/>
      <point x="533" y="1055"/>
      <point x="397" y="989"/>
      <point x="355" y="926" type="curve"/>
      <point x="355" y="1032" type="line"/>
      <point x="115" y="1032" type="line"/>
    </contour>
    <contour>
      <point x="591" y="155" type="curve" smooth="yes"/>
      <point x="535" y="155"/>
      <point x="435" y="167"/>
      <point x="355" y="216" type="curve"/>
      <point x="355" y="818" type="line"/>
      <point x="411" y="866"/>
      <point x="526" y="875"/>
      <point x="569" y="875" type="curve" smooth="yes"/>
      <point x="741" y="875"/>
      <point x="833" y="727"/>
      <point x="833" y="515" type="curve" smooth="yes"/>
      <point x="833" y="331"/>
      <point x="770" y="155"/>
    </contour>
  </outline>
</glyph>
<glyph name="q" format="1">
  <advance width="1154"/>
  <unicode hex="0071"/>
  <outline>
    <contour>
      <point x="799" y="-390" type="line"/>
      <point x="1039" y="-390" type="line"/>
      <point x="1039" y="1032" type="line"/>
      <point x="799" y="1032" type="line"/>
      <point x="799" y="950" type="line"/>
      <point x="750" y="1010"/>
      <point x="645" y="1055"/>
      <point x="525" y="1055" type="curve" smooth="yes"/>
      <point x="246" y="1055"/>
      <point x="80" y="841"/>
      <point x="80" y="496" type="curve" smooth="yes"/>
      <point x="80" y="172"/>
      <point x="271" y="-23"/>
      <point x="520" y="-23" type="curve" smooth="yes"/>
      <point x="633" y="-23"/>
      <point x="732" y="13"/>
      <point x="799" y="102" type="curve"/>
    </contour>
    <contour>
      <point x="589" y="158" type="curve" smooth="yes"/>
      <point x="447" y="158"/>
      <point x="316" y="259"/>
      <point x="316" y="498" type="curve" smooth="yes"/>
      <point x="316" y="714"/>
      <point x="401" y="872"/>
      <point x="569" y="872" type="curve" smooth="yes"/>
      <point x="636" y="872"/>
      <point x="737" y="853"/>
      <point x="799" y="817" type="curve"/>
      <point x="799" y="214" type="line"/>
      <point x="761" y="181"/>
      <point x="658" y="158"/>
    </contour>
  </outline>
</glyph>
<glyph name="r" format="1">
  <advance width="776"/>
  <unicode hex="0072"/>
  <outline>
    <contour>
      <point x="115" y="0" type="line"/>
      <point x="355" y="0" type="line"/>
      <point x="355" y="753" type="line"/>
      <point x="401" y="815"/>
      <point x="505" y="830"/>
      <point x="567" y="830" type="curve" smooth="yes"/>
      <point x="627" y="830"/>
      <point x="685" y="813"/>
      <point x="717" y="799" type="curve"/>
      <point x="755" y="1017" type="line"/>
      <point x="730" y="1030"/>
      <point x="689" y="1037"/>
      <point x="653" y="1037" type="curve" smooth="yes"/>
      <point x="526" y="1037"/>
      <point x="414" y="969"/>
      <point x="356" y="904" type="curve"/>
      <point x="355" y="904" type="line"/>
      <point x="355" y="1032" type="line"/>
      <point x="115" y="1032" type="line"/>
    </contour>
  </outline>
</glyph>
<glyph name="s" format="1">
  <advance width="974.0"/>
  <unicode hex="0073"/>
  <outline>
    <contour>
      <point x="478.0" y="-23.0" type="curve" smooth="yes"/>
      <point x="764.0" y="-23.0"/>
      <point x="926.0" y="101.0"/>
      <point x="926.0" y="298.0" type="curve" smooth="yes"/>
      <point x="926.0" y="493.0"/>
      <point x="819.0" y="574.0"/>
      <point x="579.0" y="620.0" type="curve"/>
      <point x="375.0" y="664.0"/>
      <point x="306.0" y="679.0"/>
      <point x="306.0" y="760.0" type="curve" smooth="yes"/>
      <point x="306.0" y="837.0"/>
      <point x="381.0" y="876.0"/>
      <point x="483.0" y="876.0" type="curve" smooth="yes"/>
      <point x="608.0" y="876.0"/>
      <point x="752.0" y="836.0"/>
      <point x="815.0" y="810.0" type="curve"/>
      <point x="836.0" y="810.0" type="line"/>
      <point x="855.0" y="988" type="line"/>
      <point x="799.0" y="1019"/>
      <point x="643.0" y="1058.0"/>
      <point x="478.0" y="1058.0" type="curve" smooth="yes"/>
      <point x="211.0" y="1058.0"/>
      <point x="77.0" y="934.0"/>
      <point x="77.0" y="747.0" type="curve" smooth="yes"/>
      <point x="77.0" y="547.0"/>
      <point x="263.0" y="483.0"/>
      <point x="468.0" y="444.0" type="curve"/>
      <point x="686.0" y="401.0"/>
      <point x="708.0" y="369.0"/>
      <point x="708.0" y="298.0" type="curve" smooth="yes"/>
      <point x="708.0" y="216.0"/>
      <point x="609.0" y="168.0"/>
      <point x="473.0" y="168.0" type="curve" smooth="yes"/>
      <point x="324.0" y="168.0"/>
      <point x="217.0" y="210.0"/>
      <point x="147.0" y="246.0" type="curve"/>
      <point x="109.0" y="246.0" type="line"/>
      <point x="80.0" y="71.0" type="line"/>
      <point x="182.0" y="11.0"/>
      <point x="339.0" y="-23.0"/>
    </contour>
  </outline>
</glyph>
<glyph name="u" format="1">
  <advance width="1124"/>
  <unicode hex="0075"/>
  <outline>
    <contour>
      <point x="435" y="-23" type="curve" smooth="yes"/>
      <point x="579" y="-23"/>
      <point x="703" y="43"/>
      <point x="770" y="145" type="curve"/>
      <point x="770" y="0" type="line"/>
      <point x="1010" y="0" type="line"/>
      <point x="1010" y="1032" type="line"/>
      <point x="770" y="1032" type="line"/>
      <point x="770" y="275" type="line" smooth="yes"/>
      <point x="770" y="230"/>
      <point x="662" y="168"/>
      <point x="542" y="168" type="curve" smooth="yes"/>
      <point x="427" y="168"/>
      <point x="339" y="216"/>
      <point x="339" y="386" type="curve" smooth="yes"/>
      <point x="339" y="1032" type="line"/>
      <point x="99" y="1032" type="line"/>
      <point x="99" y="345" type="line" smooth="yes"/>
      <point x="99" y="99"/>
      <point x="268" y="-23"/>
    </contour>
  </outline>
</glyph>
<glyph name="z" format="1">
  <advance width="981"/>
  <unicode hex="007A"/>
  <outline>
    <contour>
      <point x="76" y="0" type="line"/>
      <point x="916" y="0" type="line"/>
      <point x="916" y="161" type="line"/>
      <point x="314" y="161" type="line"/>
      <point x="909" y="862" type="line"/>
      <point x="909" y="1032" type="line"/>
      <point x="102" y="1032" type="line"/>
      <point x="102" y="871" type="line"/>
      <point x="662" y="871" type="line"/>
      <point x="76" y="182" type="line"/>
    </contour>
  </outline>
</glyph>
<glyph name="braceleft" format="1">
  <advance width="913"/>
  <unicode hex="007B"/>
  <outline>
    <contour>
      <point x="834" y="-259" type="curve" smooth="yes"/>
      <point x="878" y="-259" type="line"/>
      <point x="878" y="-79" type="line"/>
      <point x="740" y="-79" type="line" smooth="yes"/>
      <point x="570" y="-79"/>
      <point x="576" y="-36"/>
      <point x="576" y="189" type="curve" smooth="yes"/>
      <point x="576" y="264" type="line" smooth="yes"/>
      <point x="576" y="461"/>
      <point x="457" y="564"/>
      <point x="322" y="607" type="curve"/>
      <point x="322" y="616" type="line"/>
      <point x="485" y="668"/>
      <point x="576" y="778"/>
      <point x="576" y="1008" type="curve" smooth="yes"/>
      <point x="576" y="1063" type="line" smooth="yes"/>
      <point x="576" y="1254"/>
      <point x="585" y="1300"/>
      <point x="748" y="1300" type="curve" smooth="yes"/>
      <point x="878" y="1300" type="line"/>
      <point x="878" y="1481" type="line"/>
      <point x="770" y="1481" type="line" smooth="yes"/>
      <point x="506" y="1481"/>
      <point x="348" y="1443"/>
      <point x="348" y="1171" type="curve" smooth="yes"/>
      <point x="348" y="1002" type="line" smooth="yes"/>
      <point x="348" y="786"/>
      <point x="262" y="717"/>
      <point x="30" y="717" type="curve"/>
      <point x="30" y="504" type="line"/>
      <point x="260" y="504"/>
      <point x="348" y="428"/>
      <point x="348" y="220" type="curve" smooth="yes"/>
      <point x="348" y="90" type="line" smooth="yes"/>
      <point x="348" y="-229"/>
      <point x="509" y="-259"/>
    </contour>
  </outline>
</glyph>
<glyph name="braceright" format="1">
  <advance width="913"/>
  <unicode hex="007D"/>
  <outline>
    <contour>
      <point x="36" y="-259" type="line"/>
      <point x="143" y="-259" type="line" smooth="yes"/>
      <point x="407" y="-259"/>
      <point x="566" y="-222"/>
      <point x="566" y="50" type="curve" smooth="yes"/>
      <point x="566" y="221" type="line" smooth="yes"/>
      <point x="566" y="437"/>
      <point x="652" y="504"/>
      <point x="884" y="504" type="curve"/>
      <point x="884" y="717" type="line"/>
      <point x="654" y="717"/>
      <point x="566" y="794"/>
      <point x="566" y="1002" type="curve" smooth="yes"/>
      <point x="566" y="1133" type="line" smooth="yes"/>
      <point x="566" y="1452"/>
      <point x="405" y="1481"/>
      <point x="80" y="1481" type="curve" smooth="yes"/>
      <point x="36" y="1481" type="line"/>
      <point x="36" y="1301" type="line"/>
      <point x="174" y="1301" type="line" smooth="yes"/>
      <point x="344" y="1301"/>
      <point x="338" y="1260"/>
      <point x="338" y="1035" type="curve" smooth="yes"/>
      <point x="338" y="957" type="line" smooth="yes"/>
      <point x="338" y="760"/>
      <point x="457" y="659"/>
      <point x="592" y="616" type="curve"/>
      <point x="592" y="607" type="line"/>
      <point x="429" y="555"/>
      <point x="338" y="444"/>
      <point x="338" y="214" type="curve" smooth="yes"/>
      <point x="338" y="159" type="line" smooth="yes"/>
      <point x="338" y="-32"/>
      <point x="330" y="-78"/>
      <point x="167" y="-78" type="curve" smooth="yes"/>
      <point x="36" y="-78" type="line"/>
    </contour>
  </outline>
</glyph>
<glyph name="cent" format="1">
  <advance width="1087"/>
  <unicode hex="00A2"/>
  <outline>
    <contour>
      <point x="511" y="-291" type="line"/>
      <point x="655" y="-291" type="line"/>
      <point x="655" y="1307" type="line"/>
      <point x="511" y="1307" type="line"/>
    </contour>
    <component base="c" xOffset="-57"/>
  </outline>
</glyph>
<glyph name="sterling" format="1">
  <advance width="1210"/>
  <unicode hex="00A3"/>
  <outline>
    <contour>
      <point x="810" y="-26" type="curve" smooth="yes"/>
      <point x="915" y="-26"/>
      <point x="1043" y="4"/>
      <point x="1151" y="33" type="curve"/>
      <point x="1103" y="202" type="line"/>
      <point x="1009" y="184"/>
      <point x="863" y="163"/>
      <point x="770" y="163" type="curve" smooth="yes"/>
      <point x="681" y="163"/>
      <point x="560" y="187"/>
      <point x="473" y="189" type="curve"/>
      <point x="529" y="287"/>
      <point x="570" y="470"/>
      <point x="570" y="570" type="curve" smooth="yes"/>
      <point x="570" y="582"/>
      <point x="568" y="620"/>
      <point x="566" y="630" type="curve"/>
      <point x="958" y="630" type="line"/>
      <point x="958" y="811" type="line"/>
      <point x="545" y="811" type="line"/>
      <point x="531" y="876"/>
      <point x="482" y="1002"/>
      <point x="482" y="1077" type="curve" smooth="yes"/>
      <point x="482" y="1212"/>
      <point x="550" y="1324"/>
      <point x="729" y="1324" type="curve" smooth="yes"/>
      <point x="823" y="1324"/>
      <point x="936" y="1297"/>
      <point x="1003" y="1202" type="curve"/>
      <point x="1072" y="1202" type="line"/>
      <point x="1060" y="1401" type="line"/>
      <point x="1003" y="1457"/>
      <point x="849" y="1503"/>
      <point x="700" y="1503" type="curve" smooth="yes"/>
      <point x="406" y="1503"/>
      <point x="218" y="1358"/>
      <point x="218" y="1131" type="curve" smooth="yes"/>
      <point x="218" y="1037"/>
      <point x="255" y="930"/>
      <point x="279" y="811" type="curve"/>
      <point x="83" y="811" type="line"/>
      <point x="83" y="630" type="line"/>
      <point x="317" y="630" type="line"/>
      <point x="319" y="617"/>
      <point x="326" y="554"/>
      <point x="326" y="539" type="curve" smooth="yes"/>
      <point x="326" y="406"/>
      <point x="279" y="272"/>
      <point x="244" y="183" type="curve"/>
      <point x="205" y="175"/>
      <point x="139" y="169"/>
      <point x="74" y="164" type="curve"/>
      <point x="74" y="-12" type="line"/>
      <point x="147" y="-2"/>
      <point x="217" y="12"/>
      <point x="286" y="12" type="curve" smooth="yes"/>
      <point x="447" y="12"/>
      <point x="652" y="-26"/>
    </contour>
  </outline>
</glyph>
<glyph name="currency" format="1">
  <advance width="982"/>
  <unicode hex="00A4"/>
  <outline>
    <contour>
      <point x="157" y="253" type="line"/>
      <point x="254" y="347" type="line"/>
      <point x="308" y="307"/>
      <point x="397" y="272"/>
      <point x="492" y="272" type="curve" smooth="yes"/>
      <point x="586" y="272"/>
      <point x="671" y="303"/>
      <point x="728" y="347" type="curve"/>
      <point x="824" y="253" type="line"/>
      <point x="923" y="352" type="line"/>
      <point x="831" y="447" type="line"/>
      <point x="874" y="501"/>
      <point x="906" y="590"/>
      <point x="906" y="686" type="curve" smooth="yes"/>
      <point x="906" y="780"/>
      <point x="874" y="870"/>
      <point x="831" y="926" type="curve"/>
      <point x="923" y="1020" type="line"/>
      <point x="824" y="1119" type="line"/>
      <point x="728" y="1029" type="line"/>
      <point x="671" y="1072"/>
      <point x="586" y="1101"/>
      <point x="492" y="1101" type="curve" smooth="yes"/>
      <point x="397" y="1101"/>
      <point x="308" y="1069"/>
      <point x="254" y="1026" type="curve"/>
      <point x="157" y="1119" type="line"/>
      <point x="57" y="1020" type="line"/>
      <point x="150" y="926" type="line"/>
      <point x="106" y="870"/>
      <point x="77" y="780"/>
      <point x="77" y="686" type="curve" smooth="yes"/>
      <point x="77" y="592"/>
      <point x="107" y="501"/>
      <point x="150" y="449" type="curve"/>
      <point x="57" y="352" type="line"/>
    </contour>
    <contour>
      <point x="492" y="391" type="curve" smooth="yes"/>
      <point x="322" y="391"/>
      <point x="208" y="504"/>
      <point x="208" y="686" type="curve" smooth="yes"/>
      <point x="208" y="869"/>
      <point x="322" y="984"/>
      <point x="492" y="984" type="curve" smooth="yes"/>
      <point x="661" y="984"/>
      <point x="775" y="869"/>
      <point x="775" y="686" type="curve" smooth="yes"/>
      <point x="775" y="504"/>
      <point x="661" y="391"/>
    </contour>
  </outline>
</glyph>
<glyph name="brokenbar" format="1">
  <advance width="331"/>
  <unicode hex="00A6"/>
  <outline>
    <contour>
      <point x="90" y="-337" type="line"/>
      <point x="241" y="-337" type="line"/>
      <point x="241" y="337" type="line"/>
      <point x="90" y="337" type="line"/>
    </contour>
    <contour>
      <point x="90" y="627" type="line"/>
      <point x="241" y="627" type="line"/>
      <point x="241" y="1299" type="line"/>
      <point x="90" y="1299" type="line"/>
    </contour>
  </outline>
</glyph>
<glyph name="section" format="1">
  <advance width="991"/>
  <unicode hex="00A7"/>
  <outline>
    <contour>
      <point x="473" y="-161" type="curve" smooth="yes"/>
      <point x="759" y="-161"/>
      <point x="921" y="-36"/>
      <point x="921" y="161" type="curve" smooth="yes"/>
      <point x="921" y="289"/>
      <point x="877" y="366"/>
      <point x="778" y="418" type="curve"/>
      <point x="872" y="474"/>
      <point x="921" y="561"/>
      <point x="921" y="671" type="curve" smooth="yes"/>
      <point x="921" y="866"/>
      <point x="815" y="947"/>
      <point x="575" y="993" type="curve"/>
      <point x="371" y="1037"/>
      <point x="301" y="1052"/>
      <point x="301" y="1133" type="curve" smooth="yes"/>
      <point x="301" y="1210"/>
      <point x="376" y="1249"/>
      <point x="478" y="1249" type="curve" smooth="yes"/>
      <point x="619" y="1249"/>
      <point x="787" y="1198"/>
      <point x="831" y="1174" type="curve"/>
      <point x="850" y="1351" type="line"/>
      <point x="752" y="1401"/>
      <point x="639" y="1431"/>
      <point x="474" y="1431" type="curve" smooth="yes"/>
      <point x="207" y="1431"/>
      <point x="72" y="1308"/>
      <point x="72" y="1121" type="curve" smooth="yes"/>
      <point x="72" y="998"/>
      <point x="144" y="925"/>
      <point x="246" y="879" type="curve"/>
      <point x="131" y="829"/>
      <point x="72" y="733"/>
      <point x="72" y="610" type="curve" smooth="yes"/>
      <point x="72" y="410"/>
      <point x="259" y="345"/>
      <point x="464" y="306" type="curve"/>
      <point x="682" y="263"/>
      <point x="705" y="232"/>
      <point x="705" y="161" type="curve" smooth="yes"/>
      <point x="705" y="79"/>
      <point x="604" y="30"/>
      <point x="468" y="30" type="curve" smooth="yes"/>
      <point x="291" y="30"/>
      <point x="172" y="91"/>
      <point x="107" y="129" type="curve"/>
      <point x="76" y="-67" type="line"/>
      <point x="178" y="-127"/>
      <point x="334" y="-161"/>
    </contour>
    <contour>
      <point x="599" y="477" type="line"/>
      <point x="575" y="483" type="line" smooth="yes"/>
      <point x="371" y="527"/>
      <point x="291" y="543"/>
      <point x="291" y="649" type="curve" smooth="yes"/>
      <point x="291" y="720"/>
      <point x="332" y="792"/>
      <point x="416" y="825" type="curve"/>
      <point x="432" y="822"/>
      <point x="448" y="820"/>
      <point x="464" y="817" type="curve" smooth="yes"/>
      <point x="682" y="774"/>
      <point x="714" y="751"/>
      <point x="714" y="643" type="curve" smooth="yes"/>
      <point x="714" y="591"/>
      <point x="669" y="521"/>
      <point x="602" y="478" type="curve"/>
    </contour>
  </outline>
</glyph>
<glyph name="dieresis" format="1">
  <advance width="708"/>
  <unicode hex="00A8"/>
  <outline>
    <contour>
      <point x="76" y="1206" type="line"/>
      <point x="274" y="1206" type="line"/>
      <point x="274" y="1430" type="line"/>
      <point x="76" y="1430" type="line"/>
    </contour>
    <contour>
      <point x="442" y="1206" type="line"/>
      <point x="640" y="1206" type="line"/>
      <point x="640" y="1430" type="line"/>
      <point x="442" y="1430" type="line"/>
    </contour>
  </outline>
</glyph>
<glyph name="macron" format="1">
  <advance width="735"/>
  <unicode hex="00AF"/>
  <outline>
    <contour>
      <point x="102" y="1161" type="line"/>
      <point x="645" y="1161" type="line"/>
      <point x="645" y="1329" type="line"/>
      <point x="102" y="1329" type="line"/>
    </contour>
  </outline>
</glyph>
<glyph name="degree" format="1">
  <advance width="816"/>
  <unicode hex="00B0"/>
  <outline>
    <contour>
      <point x="408" y="866" type="curve" smooth="yes"/>
      <point x="293" y="866"/>
      <point x="199" y="954"/>
      <point x="199" y="1069" type="curve" smooth="yes"/>
      <point x="199" y="1179"/>
      <point x="293" y="1273"/>
      <point x="408" y="1273" type="curve" smooth="yes"/>
      <point x="523" y="1273"/>
      <point x="616" y="1179"/>
      <point x="616" y="1069" type="curve" smooth="yes"/>
      <point x="616" y="957"/>
      <point x="524" y="866"/>
    </contour>
    <contour>
      <point x="408" y="760" type="curve" smooth="yes"/>
      <point x="589" y="760"/>
      <point x="735" y="895"/>
      <point x="735" y="1069" type="curve" smooth="yes"/>
      <point x="735" y="1241"/>
      <point x="589" y="1378"/>
      <point x="408" y="1378" type="curve" smooth="yes"/>
      <point x="229" y="1378"/>
      <point x="80" y="1243"/>
      <point x="80" y="1069" type="curve" smooth="yes"/>
      <point x="80" y="897"/>
      <point x="227" y="760"/>
    </contour>
  </outline>
</glyph>
<glyph name="plusminus" format="1">
  <advance width="1151"/>
  <unicode hex="00B1"/>
  <outline>
    <contour>
      <point x="484" y="280" type="line"/>
      <point x="668" y="280" type="line"/>
      <point x="668" y="614" type="line"/>
      <point x="1063" y="614" type="line"/>
      <point x="1063" y="790" type="line"/>
      <point x="668" y="790" type="line"/>
      <point x="668" y="1125" type="line"/>
      <point x="484" y="1125" type="line"/>
      <point x="484" y="790" type="line"/>
      <point x="89" y="790" type="line"/>
      <point x="89" y="614" type="line"/>
      <point x="484" y="614" type="line"/>
    </contour>
    <contour>
      <point x="86" y="0" type="line"/>
      <point x="1062" y="0" type="line"/>
      <point x="1062" y="175" type="line"/>
      <point x="86" y="175" type="line"/>
    </contour>
  </outline>
</glyph>
<glyph name="uni00B2" format="1">
  <advance width="1523"/>
  <unicode hex="00B2"/>
  <outline>
    <contour>
      <point x="255.516" y="0" type="line"/>
      <point x="382.516" y="0" type="line"/>
      <point x="1214.52" y="1430" type="line"/>
      <point x="1087.52" y="1430" type="line"/>
    </contour>
    <component base="one.superior" xOffset="-80.4844"/>
    <component base="two.superior" xOffset="828.516" yOffset="-553"/>
  </outline>
</glyph>
<glyph name="acute" format="1">
  <advance width="508"/>
  <unicode hex="00B4"/>
  <outline>
    <contour>
      <point x="32" y="1137" type="line"/>
      <point x="186" y="1137" type="line"/>
      <point x="479" y="1481" type="line"/>
      <point x="213" y="1481" type="line"/>
    </contour>
  </outline>
</glyph>
<glyph name="paragraph" format="1">
  <advance width="1152"/>
  <unicode hex="00B6"/>
  <outline>
    <contour>
      <point x="586" y="-264" type="line"/>
      <point x="750" y="-264" type="line"/>
      <point x="750" y="1356" type="line"/>
      <point x="904" y="1356" type="line"/>
      <point x="904" y="-264" type="line"/>
      <point x="1069" y="-264" type="line"/>
      <point x="1069" y="1481" type="line"/>
      <point x="615" y="1481" type="line" smooth="yes"/>
      <point x="246" y="1481"/>
      <point x="72" y="1356"/>
      <point x="72" y="1117" type="curve" smooth="yes"/>
      <point x="72" y="871"/>
      <point x="291" y="748"/>
      <point x="586" y="748" type="curve"/>
    </contour>
  </outline>
</glyph>
<glyph name="cedilla" format="1">
  <advance width="603"/>
  <unicode hex="00B8"/>
  <outline>
    <contour>
      <point x="250" y="-503" type="curve" smooth="yes"/>
      <point x="445" y="-503"/>
      <point x="541" y="-398"/>
      <point x="541" y="-278" type="curve" smooth="yes"/>
      <point x="541" y="-184"/>
      <point x="478" y="-112"/>
      <point x="317" y="-109" type="curve"/>
      <point x="357" y="2" type="line"/>
      <point x="253" y="2" type="line"/>
      <point x="188" y="-183" type="line"/>
      <point x="205" y="-186"/>
      <point x="222" y="-189"/>
      <point x="237" y="-194" type="curve"/>
      <point x="250" y="-191"/>
      <point x="263" y="-189"/>
      <point x="276" y="-189" type="curve" smooth="yes"/>
      <point x="341" y="-189"/>
      <point x="389" y="-228"/>
      <point x="389" y="-280" type="curve" smooth="yes"/>
      <point x="389" y="-336"/>
      <point x="339" y="-384"/>
      <point x="252" y="-384" type="curve" smooth="yes"/>
      <point x="212" y="-384"/>
      <point x="171" y="-362"/>
      <point x="154" y="-340" type="curve"/>
      <point x="90" y="-340" type="line"/>
      <point x="59" y="-460" type="line"/>
      <point x="109" y="-484"/>
      <point x="200" y="-503"/>
    </contour>
  </outline>
</glyph>
<glyph name="guillemotright" format="1">
  <advance width="995"/>
  <unicode hex="00BB"/>
  <outline>
    <contour>
      <point x="38" y="134" type="line"/>
      <point x="500" y="546" type="line"/>
      <point x="500" y="648" type="line"/>
      <point x="38" y="1048" type="line"/>
      <point x="38" y="772" type="line"/>
      <point x="114" y="710"/>
      <point x="235" y="597"/>
      <point x="235" y="597" type="curve"/>
      <point x="38" y="410" type="line"/>
    </contour>
    <contour>
      <point x="502" y="134" type="line"/>
      <point x="965" y="546" type="line"/>
      <point x="965" y="648" type="line"/>
      <point x="502" y="1048" type="line"/>
      <point x="502" y="772" type="line"/>
      <point x="578" y="710"/>
      <point x="699" y="597"/>
      <point x="699" y="597" type="curve"/>
      <point x="502" y="410" type="line"/>
    </contour>
  </outline>
</glyph>
<glyph name="onehalf" format="1">
  <advance width="1523"/>
  <unicode hex="00BD"/>
  <outline>
    <contour>
      <point x="255.516" y="0" type="line"/>
      <point x="382.516" y="0" type="line"/>
      <point x="1214.52" y="1430" type="line"/>
      <point x="1087.52" y="1430" type="line"/>
    </contour>
    <component base="one.superior" xOffset="-80.4844"/>
    <component base="two.superior" xOffset="828.516" yOffset="-553"/>
  </outline>
</glyph>
<glyph name="Thorn" format="1">
  <advance width="1301"/>
  <unicode hex="00DE"/>
  <outline>
    <contour>
      <point x="194" y="0" type="line"/>
      <point x="435" y="0" type="line"/>
      <point x="435" y="318" type="line"/>
      <point x="610" y="318" type="line" smooth="yes"/>
      <point x="962" y="318"/>
      <point x="1185" y="449"/>
      <point x="1185" y="748" type="curve" smooth="yes"/>
      <point x="1185" y="1089"/>
      <point x="968" y="1213"/>
      <point x="627" y="1213" type="curve" smooth="yes"/>
      <point x="435" y="1213" type="line"/>
      <point x="435" y="1481" type="line"/>
      <point x="194" y="1481" type="line"/>
    </contour>
    <contour>
      <point x="435" y="498" type="line"/>
      <point x="435" y="1032" type="line"/>
      <point x="618" y="1032" type="line" smooth="yes"/>
      <point x="878" y="1032"/>
      <point x="944" y="938"/>
      <point x="944" y="749" type="curve" smooth="yes"/>
      <point x="944" y="537"/>
      <point x="811" y="498"/>
      <point x="610" y="498" type="curve" smooth="yes"/>
    </contour>
  </outline>
</glyph>
<glyph name="germandbls" format="1">
  <advance width="1230"/>
  <unicode hex="00DF"/>
  <outline>
    <contour>
      <point x="116" y="0" type="line"/>
      <point x="358" y="0" type="line"/>
      <point x="358" y="1055" type="line" smooth="yes"/>
      <point x="358" y="1262"/>
      <point x="461" y="1324"/>
      <point x="616" y="1324" type="curve" smooth="yes"/>
      <point x="775" y="1324"/>
      <point x="847" y="1246"/>
      <point x="847" y="1144" type="curve" smooth="yes"/>
      <point x="847" y="1027"/>
      <point x="742" y="947"/>
      <point x="597" y="947" type="curve"/>
      <point x="597" y="794" type="line"/>
      <point x="834" y="794"/>
      <point x="961" y="588"/>
      <point x="961" y="444" type="curve" smooth="yes"/>
      <point x="961" y="302"/>
      <point x="876" y="178"/>
      <point x="654" y="178" type="curve" smooth="yes"/>
      <point x="637" y="178"/>
      <point x="620" y="179"/>
      <point x="601" y="181" type="curve"/>
      <point x="601" y="-2" type="line"/>
      <point x="644" y="-4"/>
      <point x="681" y="-5"/>
      <point x="700" y="-5" type="curve" smooth="yes"/>
      <point x="1039" y="-5"/>
      <point x="1207" y="175"/>
      <point x="1207" y="444" type="curve" smooth="yes"/>
      <point x="1207" y="605"/>
      <point x="1106" y="796"/>
      <point x="862" y="868" type="curve"/>
      <point x="862" y="872" type="line"/>
      <point x="995" y="894"/>
      <point x="1101" y="1012"/>
      <point x="1101" y="1165" type="curve" smooth="yes"/>
      <point x="1101" y="1361"/>
      <point x="931" y="1503"/>
      <point x="621" y="1503" type="curve" smooth="yes"/>
      <point x="283" y="1503"/>
      <point x="116" y="1334"/>
      <point x="116" y="1032" type="curve" smooth="yes"/>
    </contour>
  </outline>
</glyph>
<glyph name="ae" format="1">
  <advance width="1764"/>
  <unicode hex="00E6"/>
  <outline>
    <contour>
      <point x="445" y="-23" type="curve" smooth="yes"/>
      <point x="602" y="-23"/>
      <point x="765" y="25"/>
      <point x="871" y="210" type="curve"/>
      <point x="917" y="101"/>
      <point x="1048" y="-23"/>
      <point x="1268" y="-23" type="curve" smooth="yes"/>
      <point x="1508" y="-23"/>
      <point x="1598" y="40"/>
      <point x="1685" y="97" type="curve"/>
      <point x="1638" y="246" type="line"/>
      <point x="1591" y="246" type="line"/>
      <point x="1556" y="215"/>
      <point x="1462" y="148"/>
      <point x="1315" y="148" type="curve" smooth="yes"/>
      <point x="1107" y="148"/>
      <point x="996" y="260"/>
      <point x="988" y="460" type="curve"/>
      <point x="1694" y="460" type="line"/>
      <point x="1694" y="525" type="line" smooth="yes"/>
      <point x="1694" y="826"/>
      <point x="1545" y="1055"/>
      <point x="1229" y="1055" type="curve" smooth="yes"/>
      <point x="1105" y="1055"/>
      <point x="979" y="1014"/>
      <point x="895" y="919" type="curve"/>
      <point x="808" y="1039"/>
      <point x="670" y="1058"/>
      <point x="495" y="1058" type="curve" smooth="yes"/>
      <point x="369" y="1058"/>
      <point x="200" y="1017"/>
      <point x="133" y="971" type="curve"/>
      <point x="189" y="807" type="line"/>
      <point x="271" y="850"/>
      <point x="419" y="877"/>
      <point x="505" y="877" type="curve" smooth="yes"/>
      <point x="696" y="877"/>
      <point x="744" y="789"/>
      <point x="746" y="648" type="curve"/>
      <point x="746" y="648"/>
      <point x="588" y="643"/>
      <point x="542" y="640" type="curve" smooth="yes"/>
      <point x="263" y="621"/>
      <point x="67" y="533"/>
      <point x="67" y="290" type="curve" smooth="yes"/>
      <point x="67" y="68"/>
      <point x="259" y="-23"/>
    </contour>
    <contour>
      <point x="457" y="153" type="curve" smooth="yes"/>
      <point x="341" y="153"/>
      <point x="294" y="232"/>
      <point x="294" y="307" type="curve" smooth="yes"/>
      <point x="294" y="424"/>
      <point x="403" y="490"/>
      <point x="747" y="502" type="curve"/>
      <point x="747" y="284"/>
      <point x="644" y="153"/>
    </contour>
    <contour>
      <point x="988" y="612" type="line"/>
      <point x="1011" y="747"/>
      <point x="1060" y="888"/>
      <point x="1239" y="888" type="curve" smooth="yes"/>
      <point x="1400" y="888"/>
      <point x="1475" y="749"/>
      <point x="1477" y="612" type="curve"/>
    </contour>
  </outline>
</glyph>
<glyph name="eth" format="1">
  <advance width="961"/>
  <unicode hex="00F0"/>
  <outline>
    <contour>
      <point x="598" y="-23" type="curve" smooth="yes"/>
      <point x="912" y="-23"/>
      <point x="1114" y="175"/>
      <point x="1114" y="524" type="curve" smooth="yes"/>
      <point x="1114" y="822"/>
      <point x="1011" y="1109"/>
      <point x="811" y="1290" type="curve"/>
      <point x="941" y="1420" type="line"/>
      <point x="849" y="1503" type="line"/>
      <point x="710" y="1366" type="line"/>
      <point x="596" y="1438"/>
      <point x="459" y="1480"/>
      <point x="301" y="1482" type="curve"/>
      <point x="266" y="1314" type="line"/>
      <point x="385" y="1304"/>
      <point x="484" y="1272"/>
      <point x="566" y="1223" type="curve"/>
      <point x="424" y="1082" type="line"/>
      <point x="516" y="998" type="line"/>
      <point x="666" y="1147" type="line"/>
      <point x="764" y="1053"/>
      <point x="826" y="923"/>
      <point x="858" y="773" type="curve"/>
      <point x="782" y="868"/>
      <point x="625" y="910"/>
      <point x="536" y="910" type="curve" smooth="yes"/>
      <point x="297" y="910"/>
      <point x="82" y="752"/>
      <point x="82" y="465" type="curve" smooth="yes"/>
      <point x="82" y="160"/>
      <point x="287" y="-23"/>
    </contour>
    <contour>
      <point x="608" y="158" type="curve" smooth="yes"/>
      <point x="394" y="158"/>
      <point x="314" y="291"/>
      <point x="314" y="463" type="curve" smooth="yes"/>
      <point x="314" y="612"/>
      <point x="430" y="727"/>
      <point x="589" y="727" type="curve"/>
      <point x="810" y="725"/>
      <point x="877" y="551"/>
      <point x="877" y="431" type="curve" smooth="yes"/>
      <point x="877" y="285"/>
      <point x="771" y="158"/>
    </contour>
  </outline>
</glyph>
<glyph name="divide" format="1">
  <advance width="1365"/>
  <unicode hex="00F7"/>
  <outline>
    <contour>
      <point x="681" y="0" type="curve" smooth="yes"/>
      <point x="792" y="0"/>
      <point x="882" y="90"/>
      <point x="882" y="201" type="curve" smooth="yes"/>
      <point x="882" y="312"/>
      <point x="792" y="403"/>
      <point x="681" y="403" type="curve" smooth="yes"/>
      <point x="570" y="403"/>
      <point x="480" y="312"/>
      <point x="480" y="201" type="curve" smooth="yes"/>
      <point x="480" y="90"/>
      <point x="570" y="0"/>
    </contour>
    <contour>
      <point x="87" y="495" type="line"/>
      <point x="1278" y="495" type="line"/>
      <point x="1278" y="729" type="line"/>
      <point x="87" y="729" type="line"/>
    </contour>
    <contour>
      <point x="681" y="825" type="curve" smooth="yes"/>
      <point x="792" y="825"/>
      <point x="882" y="915"/>
      <point x="882" y="1026" type="curve" smooth="yes"/>
      <point x="882" y="1137"/>
      <point x="792" y="1228"/>
      <point x="681" y="1228" type="curve" smooth="yes"/>
      <point x="570" y="1228"/>
      <point x="480" y="1137"/>
      <point x="480" y="1026" type="curve" smooth="yes"/>
      <point x="480" y="915"/>
      <point x="570" y="825"/>
    </contour>
  </outline>
</glyph>
<glyph name="thorn" format="1">
  <advance width="1141"/>
  <unicode hex="00FE"/>
  <outline>
    <contour>
      <point x="115" y="-390" type="line"/>
      <point x="355" y="-390" type="line"/>
      <point x="355" y="72" type="line"/>
      <point x="399" y="26"/>
      <point x="517" y="-26"/>
      <point x="627" y="-26" type="curve" smooth="yes"/>
      <point x="895" y="-26"/>
      <point x="1066" y="161"/>
      <point x="1066" y="515" type="curve" smooth="yes"/>
      <point x="1066" y="833"/>
      <point x="925" y="1055"/>
      <point x="648" y="1055" type="curve" smooth="yes"/>
      <point x="528" y="1055"/>
      <point x="397" y="989"/>
      <point x="355" y="926" type="curve"/>
      <point x="355" y="1430" type="line"/>
      <point x="115" y="1430" type="line"/>
    </contour>
    <contour>
      <point x="588" y="155" type="curve" smooth="yes"/>
      <point x="532" y="155"/>
      <point x="435" y="167"/>
      <point x="355" y="216" type="curve"/>
      <point x="355" y="818" type="line"/>
      <point x="411" y="866"/>
      <point x="523" y="875"/>
      <point x="566" y="875" type="curve" smooth="yes"/>
      <point x="738" y="875"/>
      <point x="825" y="727"/>
      <point x="825" y="515" type="curve" smooth="yes"/>
      <point x="825" y="331"/>
      <point x="767" y="155"/>
    </contour>
  </outline>
</glyph>
<glyph name="oe" format="1">
  <advance width="1860"/>
  <unicode hex="0153"/>
  <outline>
    <contour>
      <point x="556" y="-27" type="curve" smooth="yes"/>
      <point x="750" y="-27"/>
      <point x="881" y="62"/>
      <point x="956" y="172" type="curve"/>
      <point x="1028" y="60"/>
      <point x="1204" y="-23"/>
      <point x="1378" y="-23" type="curve" smooth="yes"/>
      <point x="1598" y="-23"/>
      <point x="1702" y="42"/>
      <point x="1783" y="98" type="curve"/>
      <point x="1736" y="243" type="line"/>
      <point x="1687" y="243" type="line"/>
      <point x="1655" y="213"/>
      <point x="1563" y="148"/>
      <point x="1404" y="148" type="curve" smooth="yes"/>
      <point x="1177" y="148"/>
      <point x="1073" y="293"/>
      <point x="1071" y="461" type="curve"/>
      <point x="1794" y="461" type="line"/>
      <point x="1794" y="526" type="line" smooth="yes"/>
      <point x="1794" y="832"/>
      <point x="1637" y="1054"/>
      <point x="1325" y="1054" type="curve" smooth="yes"/>
      <point x="1143" y="1054"/>
      <point x="1016" y="941"/>
      <point x="951" y="851" type="curve"/>
      <point x="894" y="966"/>
      <point x="753" y="1059"/>
      <point x="559" y="1059" type="curve" smooth="yes"/>
      <point x="399" y="1059"/>
      <point x="48" y="971"/>
      <point x="48" y="516" type="curve" smooth="yes"/>
      <point x="48" y="66"/>
      <point x="392" y="-27"/>
    </contour>
    <contour>
      <point x="559" y="148" type="curve" smooth="yes"/>
      <point x="424" y="148"/>
      <point x="274" y="229"/>
      <point x="274" y="515" type="curve" smooth="yes"/>
      <point x="274" y="816"/>
      <point x="448" y="886"/>
      <point x="552" y="886" type="curve" smooth="yes"/>
      <point x="719" y="886"/>
      <point x="838" y="810"/>
      <point x="838" y="513" type="curve" smooth="yes"/>
      <point x="838" y="240"/>
      <point x="697" y="148"/>
    </contour>
    <contour>
      <point x="1075" y="612" type="line"/>
      <point x="1088" y="727"/>
      <point x="1149" y="888"/>
      <point x="1343" y="888" type="curve" smooth="yes"/>
      <point x="1511" y="888"/>
      <point x="1573" y="742"/>
      <point x="1578" y="612" type="curve"/>
    </contour>
  </outline>
</glyph>
<glyph name="caron" format="1">
  <advance width="990"/>
  <unicode hex="02C7"/>
  <outline>
    <contour>
      <point x="382" y="1170" type="line"/>
      <point x="606" y="1170" type="line"/>
      <point x="919" y="1509" type="line"/>
      <point x="661" y="1509" type="line"/>
      <point x="495" y="1325" type="line"/>
      <point x="328" y="1509" type="line"/>
      <point x="70" y="1509" type="line"/>
    </contour>
  </outline>
</glyph>
<glyph name="uni02C9" format="1">
  <advance width="735"/>
  <unicode hex="02C9"/>
  <outline>
    <contour>
      <point x="90" y="1169" type="line"/>
      <point x="645" y="1169" type="line"/>
      <point x="645" y="1295" type="line"/>
      <point x="90" y="1295" type="line"/>
    </contour>
  </outline>
</glyph>
<glyph name="ring" format="1">
  <advance width="915"/>
  <unicode hex="02DA"/>
  <outline>
    <contour>
      <point x="466" y="276" type="curve" smooth="yes"/>
      <point x="373" y="276"/>
      <point x="296" y="350"/>
      <point x="296" y="447" type="curve" smooth="yes"/>
      <point x="296" y="540"/>
      <point x="373" y="619"/>
      <point x="466" y="619" type="curve" smooth="yes"/>
      <point x="559" y="619"/>
      <point x="634" y="540"/>
      <point x="634" y="447" type="curve" smooth="yes"/>
      <point x="634" y="352"/>
      <point x="560" y="276"/>
    </contour>
    <contour>
      <point x="466" y="187" type="curve" smooth="yes"/>
      <point x="612" y="187"/>
      <point x="731" y="301"/>
      <point x="731" y="447" type="curve" smooth="yes"/>
      <point x="731" y="591"/>
      <point x="612" y="707"/>
      <point x="466" y="707" type="curve" smooth="yes"/>
      <point x="320" y="707"/>
      <point x="200" y="593"/>
      <point x="200" y="447" type="curve" smooth="yes"/>
      <point x="200" y="301"/>
      <point x="319" y="187"/>
    </contour>
  </outline>
</glyph>
<glyph name="tilde" format="1">
  <advance width="945"/>
  <unicode hex="02DC"/>
  <outline>
    <contour>
      <point x="661" y="215" type="curve" smooth="yes"/>
      <point x="808" y="215"/>
      <point x="847" y="277"/>
      <point x="847" y="514" type="curve"/>
      <point x="696" y="514" type="line"/>
      <point x="696" y="419"/>
      <point x="677" y="417"/>
      <point x="645" y="417" type="curve" smooth="yes"/>
      <point x="617" y="417"/>
      <point x="383" y="514"/>
      <point x="294" y="514" type="curve" smooth="yes"/>
      <point x="166" y="514"/>
      <point x="96" y="453"/>
      <point x="96" y="215" type="curve"/>
      <point x="251" y="215" type="line"/>
      <point x="251" y="283"/>
      <point x="258" y="313"/>
      <point x="304" y="313" type="curve" smooth="yes"/>
      <point x="367" y="313"/>
      <point x="536.653846154" y="215.0"/>
    </contour>
  </outline>
</glyph>
<glyph name="hungarumlaut" format="1">
  <advance width="725"/>
  <unicode hex="02DD"/>
  <outline>
    <contour>
      <point x="-13" y="1137" type="line"/>
      <point x="141" y="1137" type="line"/>
      <point x="405" y="1481" type="line"/>
      <point x="179" y="1481" type="line"/>
    </contour>
    <contour>
      <point x="293" y="1137" type="line"/>
      <point x="448" y="1137" type="line"/>
      <point x="740" y="1481" type="line"/>
      <point x="495" y="1481" type="line"/>
    </contour>
  </outline>
</glyph>
<glyph name="emdash" format="1">
  <advance width="2104"/>
  <unicode hex="2014"/>
  <outline>
    <contour>
      <point x="90" y="467" type="line"/>
      <point x="2014" y="467" type="line"/>
      <point x="2014" y="713" type="line"/>
      <point x="90" y="713" type="line"/>
    </contour>
  </outline>
</glyph>
<glyph name="quoteright" format="1">
  <advance width="391"/>
  <unicode hex="2019"/>
  <outline>
    <contour>
      <point x="34" y="995" type="line"/>
      <point x="187" y="995" type="line"/>
      <point x="361" y="1481" type="line"/>
      <point x="132" y="1481" type="line"/>
    </contour>
  </outline>
</glyph>
<glyph name="quotesinglbase" format="1">
  <advance width="425"/>
  <unicode hex="201A"/>
  <outline>
    <contour>
      <point x="33" y="-243" type="line"/>
      <point x="216" y="-243" type="line"/>
      <point x="398" y="243" type="line"/>
      <point x="132" y="243" type="line"/>
    </contour>
  </outline>
</glyph>
<glyph name="quotedblleft" format="1">
  <advance width="734"/>
  <unicode hex="201C"/>
  <outline>
    <contour>
      <point x="206" y="995" type="line"/>
      <point x="358" y="995" type="line"/>
      <point x="259" y="1481" type="line"/>
      <point x="31" y="1481" type="line"/>
    </contour>
    <contour>
      <point x="548" y="995" type="line"/>
      <point x="701" y="995" type="line"/>
      <point x="603" y="1481" type="line"/>
      <point x="375" y="1481" type="line"/>
    </contour>
  </outline>
</glyph>
<glyph name="quotedblright" format="1">
  <advance width="734"/>
  <unicode hex="201D"/>
  <outline>
    <contour>
      <point x="34" y="995" type="line"/>
      <point x="187" y="995" type="line"/>
      <point x="361" y="1481" type="line"/>
      <point x="132" y="1481" type="line"/>
    </contour>
    <contour>
      <point x="378" y="995" type="line"/>
      <point x="531" y="995" type="line"/>
      <point x="704" y="1481" type="line"/>
      <point x="476" y="1481" type="line"/>
    </contour>
  </outline>
</glyph>
<glyph name="quotedblbase" format="1">
  <advance width="821"/>
  <unicode hex="201E"/>
  <outline>
    <contour>
      <point x="27" y="-243" type="line"/>
      <point x="189" y="-243" type="line"/>
      <point x="420" y="243" type="line"/>
      <point x="125" y="243" type="line"/>
    </contour>
    <contour>
      <point x="408" y="-243" type="line"/>
      <point x="572" y="-243" type="line"/>
      <point x="801" y="243" type="line"/>
      <point x="507" y="243" type="line"/>
    </contour>
  </outline>
</glyph>
<glyph name="dagger" format="1">
  <advance width="1109"/>
  <unicode hex="2020"/>
  <outline>
    <contour>
      <point x="425" y="-50" type="line"/>
      <point x="682" y="-50" type="line"/>
      <point x="682" y="817" type="line"/>
      <point x="1024" y="817" type="line"/>
      <point x="1024" y="1023" type="line"/>
      <point x="685" y="1023" type="line"/>
      <point x="685" y="1431" type="line"/>
      <point x="429" y="1431" type="line"/>
      <point x="429" y="1025" type="line"/>
      <point x="85" y="1025" type="line"/>
      <point x="85" y="819" type="line"/>
      <point x="425" y="819" type="line"/>
    </contour>
  </outline>
</glyph>
<glyph name="daggerdbl" format="1">
  <advance width="1115"/>
  <unicode hex="2021"/>
  <outline>
    <contour>
      <point x="430" y="-46" type="line"/>
      <point x="686" y="-46" type="line"/>
      <point x="686" y="333" type="line"/>
      <point x="1028" y="333" type="line"/>
      <point x="1028" y="539" type="line"/>
      <point x="683" y="539" type="line"/>
      <point x="683" y="855" type="line"/>
      <point x="1028" y="855" type="line"/>
      <point x="1028" y="1060" type="line"/>
      <point x="689" y="1060" type="line"/>
      <point x="689" y="1431" type="line"/>
      <point x="433" y="1431" type="line"/>
      <point x="433" y="1063" type="line"/>
      <point x="89" y="1063" type="line"/>
      <point x="89" y="858" type="line"/>
      <point x="434" y="858" type="line"/>
      <point x="434" y="542" type="line"/>
      <point x="89" y="542" type="line"/>
      <point x="89" y="335" type="line"/>
      <point x="430" y="335" type="line"/>
    </contour>
  </outline>
</glyph>
<glyph name="fraction" format="1">
  <advance width="953"/>
  <unicode hex="2044"/>
  <outline>
    <contour>
      <point x="-53" y="-12" type="line"/>
      <point x="208" y="-12" type="line"/>
      <point x="1005" y="1403" type="line"/>
      <point x="746" y="1403" type="line"/>
    </contour>
  </outline>
</glyph>
<glyph name="Euro" format="1">
  <advance width="1162"/>
  <unicode hex="20AC"/>
  <outline>
    <contour>
      <point x="791" y="-23" type="curve" smooth="yes"/>
      <point x="902" y="-23"/>
      <point x="1068" y="5"/>
      <point x="1190" y="99" type="curve"/>
      <point x="1190" y="358" type="line"/>
      <point x="1105" y="358" type="line"/>
      <point x="1062" y="162"/>
      <point x="847" y="158"/>
      <point x="772" y="158" type="curve" smooth="yes"/>
      <point x="491" y="158"/>
      <point x="384" y="344"/>
      <point x="357" y="533" type="curve"/>
      <point x="951" y="533" type="line"/>
      <point x="982" y="661" type="line"/>
      <point x="341" y="661" type="line"/>
      <point x="339" y="676"/>
      <point x="338" y="699"/>
      <point x="338" y="722" type="curve" smooth="yes"/>
      <point x="340" y="819" type="line"/>
      <point x="999" y="819" type="line"/>
      <point x="1029" y="941" type="line"/>
      <point x="353" y="941" type="line"/>
      <point x="410" y="1254"/>
      <point x="607" y="1324"/>
      <point x="775" y="1324" type="curve" smooth="yes"/>
      <point x="926" y="1324"/>
      <point x="1055" y="1265"/>
      <point x="1112" y="1123" type="curve"/>
      <point x="1190" y="1123" type="line"/>
      <point x="1190" y="1378" type="line"/>
      <point x="1070" y="1468"/>
      <point x="921" y="1503"/>
      <point x="779" y="1503" type="curve" smooth="yes"/>
      <point x="427" y="1503"/>
      <point x="174" y="1335"/>
      <point x="112" y="941" type="curve"/>
      <point x="-17" y="941" type="line"/>
      <point x="-41" y="819" type="line"/>
      <point x="101" y="819" type="line"/>
      <point x="99" y="722" type="line" smooth="yes"/>
      <point x="99" y="699"/>
      <point x="100" y="676"/>
      <point x="102" y="661" type="curve"/>
      <point x="-7" y="661" type="line"/>
      <point x="-41" y="533" type="line"/>
      <point x="117" y="533" type="line"/>
      <point x="198" y="147"/>
      <point x="419" y="-23"/>
    </contour>
  </outline>
</glyph>
<glyph name="trademark" format="1">
  <advance width="1640"/>
  <unicode hex="2122"/>
  <outline>
    <contour>
      <point x="727" y="771" type="line"/>
      <point x="872" y="771" type="line"/>
      <point x="872" y="1356" type="line"/>
      <point x="881" y="1356" type="line"/>
      <point x="1080" y="896" type="line"/>
      <point x="1206" y="896" type="line"/>
      <point x="1399" y="1351" type="line"/>
      <point x="1408" y="1351" type="line"/>
      <point x="1408" y="771" type="line"/>
      <point x="1555" y="771" type="line"/>
      <point x="1555" y="1481" type="line"/>
      <point x="1324" y="1481" type="line"/>
      <point x="1144" y="1074" type="line"/>
      <point x="968" y="1481" type="line"/>
      <point x="727" y="1481" type="line"/>
    </contour>
    <contour>
      <point x="273" y="771" type="line"/>
      <point x="419" y="771" type="line"/>
      <point x="419" y="1362" type="line"/>
      <point x="617" y="1362" type="line"/>
      <point x="617" y="1481" type="line"/>
      <point x="75" y="1481" type="line"/>
      <point x="75" y="1362" type="line"/>
      <point x="273" y="1362" type="line"/>
    </contour>
  </outline>
</glyph>
<glyph name="uni2215" format="1">
  <advance width="676"/>
  <unicode hex="2215"/>
  <outline>
    <contour>
      <point x="-52" y="0" type="line"/>
      <point x="216" y="0" type="line"/>
      <point x="728" y="1480" type="line"/>
      <point x="458" y="1480" type="line"/>
    </contour>
  </outline>
</glyph>
<glyph name="approxequal" format="1">
  <advance width="1061"/>
  <unicode hex="2248"/>
  <outline>
    <contour>
      <point x="202" y="203" type="line"/>
      <point x="220" y="292"/>
      <point x="261" y="350"/>
      <point x="343" y="350" type="curve" smooth="yes"/>
      <point x="381" y="350"/>
      <point x="431" y="326"/>
      <point x="498" y="287" type="curve"/>
      <point x="592" y="234"/>
      <point x="665" y="208"/>
      <point x="730" y="208" type="curve" smooth="yes"/>
      <point x="890" y="208"/>
      <point x="993" y="324"/>
      <point x="1016" y="493" type="curve"/>
      <point x="859" y="516" type="line"/>
      <point x="850" y="433"/>
      <point x="805" y="393"/>
      <point x="730" y="381" type="curve" smooth="yes"/>
      <point x="687" y="374"/>
      <point x="628" y="400"/>
      <point x="556" y="442" type="curve"/>
      <point x="487" y="481"/>
      <point x="413" y="512"/>
      <point x="335" y="512" type="curve" smooth="yes"/>
      <point x="175" y="512"/>
      <point x="68" y="398"/>
      <point x="45" y="223" type="curve"/>
    </contour>
    <contour>
      <point x="202" y="589" type="line"/>
      <point x="220" y="676"/>
      <point x="261" y="733"/>
      <point x="343" y="733" type="curve" smooth="yes"/>
      <point x="382" y="733"/>
      <point x="432" y="712"/>
      <point x="498" y="674" type="curve" smooth="yes"/>
      <point x="592" y="620"/>
      <point x="665" y="594"/>
      <point x="732" y="594" type="curve" smooth="yes"/>
      <point x="890" y="594"/>
      <point x="993" y="710"/>
      <point x="1016" y="879" type="curve"/>
      <point x="859" y="902" type="line"/>
      <point x="848" y="817"/>
      <point x="804" y="767"/>
      <point x="724" y="764" type="curve" smooth="yes"/>
      <point x="681" y="762"/>
      <point x="625" y="786"/>
      <point x="556" y="826" type="curve" smooth="yes"/>
      <point x="487" y="866"/>
      <point x="413" y="898"/>
      <point x="336" y="898" type="curve" smooth="yes"/>
      <point x="175" y="898"/>
      <point x="68" y="786"/>
      <point x="45" y="612" type="curve"/>
    </contour>
  </outline>
</glyph>
<glyph name="notequal" format="1">
  <advance width="1083"/>
  <unicode hex="2260"/>
  <outline>
    <contour>
      <point x="186" y="50" type="line"/>
      <point x="374" y="39" type="line"/>
      <point x="495" y="270" type="line"/>
      <point x="994" y="270" type="line"/>
      <point x="994" y="435" type="line"/>
      <point x="576" y="435" type="line"/>
      <point x="694" y="663" type="line"/>
      <point x="994" y="663" type="line"/>
      <point x="994" y="828" type="line"/>
      <point x="776" y="828" type="line"/>
      <point x="897" y="1055" type="line"/>
      <point x="707" y="1069" type="line"/>
      <point x="583" y="828" type="line"/>
      <point x="89" y="828" type="line"/>
      <point x="89" y="663" type="line"/>
      <point x="500" y="663" type="line"/>
      <point x="384" y="435" type="line"/>
      <point x="89" y="435" type="line"/>
      <point x="89" y="270" type="line"/>
      <point x="299" y="270" type="line"/>
    </contour>
  </outline>
</glyph>
<glyph name="greaterequal" format="1">
  <advance width="1032"/>
  <unicode hex="2265"/>
  <outline>
    <contour>
      <point x="97" y="220" type="line"/>
      <point x="937" y="607" type="line"/>
      <point x="937" y="755" type="line"/>
      <point x="97" y="1154" type="line"/>
      <point x="97" y="961" type="line"/>
      <point x="736" y="679" type="line"/>
      <point x="97" y="412" type="line"/>
    </contour>
    <contour>
      <point x="83" y="2" type="line"/>
      <point x="948" y="2" type="line"/>
      <point x="948" y="168" type="line"/>
      <point x="83" y="168" type="line"/>
    </contour>
  </outline>
</glyph>
<glyph name="dblgravecmb" format="1">
  <advance width="725"/>
  <outline>
    <contour>
      <point x="220" y="1137" type="line"/>
      <point x="374" y="1137" type="line"/>
      <point x="172" y="1481" type="line"/>
      <point x="-54" y="1481" type="line"/>
    </contour>
    <contour>
      <point x="526" y="1137" type="line"/>
      <point x="681" y="1137" type="line"/>
      <point x="507" y="1481" type="line"/>
      <point x="262" y="1481" type="line"/>
    </contour>
  </outline>
</glyph>
<glyph name="f_l" format="1">
  <advance width="1341"/>
  <outline>
    <contour>
      <point x="1226" y="-6" type="curve" smooth="yes"/>
      <point x="1308" y="-6" type="line"/>
      <point x="1308" y="174" type="line"/>
      <point x="1173" y="174"/>
      <point x="1112" y="172"/>
      <point x="1112" y="301" type="curve" smooth="yes"/>
      <point x="1112" y="1411" type="line"/>
      <point x="1112" y="1411"/>
      <point x="777" y="1442"/>
      <point x="577" y="1442" type="curve" smooth="yes"/>
      <point x="310" y="1442"/>
      <point x="189" y="1326"/>
      <point x="189" y="1075" type="curve" smooth="yes"/>
      <point x="189" y="1037" type="line"/>
      <point x="23" y="1037" type="line"/>
      <point x="23" y="871" type="line"/>
      <point x="189" y="871" type="line"/>
      <point x="189" y="0" type="line"/>
      <point x="429" y="0" type="line"/>
      <point x="429" y="871" type="line"/>
      <point x="688" y="871" type="line"/>
      <point x="688" y="1037" type="line"/>
      <point x="420" y="1037" type="line"/>
      <point x="420" y="1236"/>
      <point x="496" y="1268"/>
      <point x="624" y="1268" type="curve" smooth="yes"/>
      <point x="680" y="1268"/>
      <point x="871" y="1256"/>
      <point x="871" y="1256" type="curve"/>
      <point x="871" y="348" type="line" smooth="yes"/>
      <point x="871" y="196"/>
      <point x="834" y="-6"/>
    </contour>
  </outline>
</glyph>
<glyph name="one.superior" format="1">
  <advance width="560"/>
  <outline>
    <contour>
      <point x="81" y="552" type="line"/>
      <point x="498" y="552" type="line"/>
      <point x="498" y="653" type="line"/>
      <point x="356" y="653" type="line"/>
      <point x="356" y="1375" type="line"/>
      <point x="206" y="1375" type="line"/>
      <point x="185" y="1332"/>
      <point x="148" y="1296"/>
      <point x="67" y="1277" type="curve"/>
      <point x="67" y="1194" type="line"/>
      <point x="222" y="1240" type="line"/>
      <point x="222" y="653" type="line"/>
      <point x="81" y="653" type="line"/>
    </contour>
  </outline>
</glyph>
<glyph name="three.superior" format="1">
  <advance width="677"/>
  <outline>
    <contour>
      <point x="308" y="546" type="curve" smooth="yes"/>
      <point x="505" y="546"/>
      <point x="622" y="643"/>
      <point x="622" y="784" type="curve" smooth="yes"/>
      <point x="622" y="894"/>
      <point x="534" y="965"/>
      <point x="459" y="988" type="curve"/>
      <point x="526" y="1018"/>
      <point x="592" y="1065"/>
      <point x="592" y="1169" type="curve" smooth="yes"/>
      <point x="592" y="1281"/>
      <point x="505" y="1383"/>
      <point x="305" y="1383" type="curve" smooth="yes"/>
      <point x="210" y="1383"/>
      <point x="114" y="1357"/>
      <point x="64" y="1321" type="curve"/>
      <point x="64" y="1226" type="line"/>
      <point x="95" y="1226" type="line"/>
      <point x="95" y="1226"/>
      <point x="168" y="1281"/>
      <point x="289" y="1281" type="curve" smooth="yes"/>
      <point x="404" y="1281"/>
      <point x="459" y="1236"/>
      <point x="459" y="1169" type="curve" smooth="yes"/>
      <point x="459" y="1093"/>
      <point x="419" y="1032"/>
      <point x="275" y="1032" type="curve" smooth="yes"/>
      <point x="209" y="1032" type="line"/>
      <point x="209" y="947" type="line"/>
      <point x="275" y="947" type="line" smooth="yes"/>
      <point x="432" y="947"/>
      <point x="489" y="860"/>
      <point x="489" y="784" type="curve" smooth="yes"/>
      <point x="489" y="695"/>
      <point x="419" y="645"/>
      <point x="294" y="645" type="curve" smooth="yes"/>
      <point x="146" y="645"/>
      <point x="95" y="704"/>
      <point x="95" y="704" type="curve"/>
      <point x="64" y="704" type="line"/>
      <point x="64" y="607" type="line"/>
      <point x="99" y="584"/>
      <point x="186" y="546"/>
    </contour>
  </outline>
</glyph>
<glyph name="two.superior" format="1">
  <advance width="643"/>
  <outline>
    <contour>
      <point x="78" y="553" type="line"/>
      <point x="563" y="553" type="line"/>
      <point x="563" y="653" type="line"/>
      <point x="228" y="653" type="line"/>
      <point x="422" y="845"/>
      <point x="560" y="997"/>
      <point x="560" y="1158" type="curve" smooth="yes"/>
      <point x="560" y="1296"/>
      <point x="474" y="1384"/>
      <point x="315" y="1384" type="curve" smooth="yes"/>
      <point x="233" y="1384"/>
      <point x="126" y="1346"/>
      <point x="90" y="1310" type="curve"/>
      <point x="114" y="1214" type="line"/>
      <point x="145" y="1244"/>
      <point x="239" y="1282"/>
      <point x="297" y="1282" type="curve" smooth="yes"/>
      <point x="412" y="1282"/>
      <point x="443" y="1232"/>
      <point x="443" y="1154" type="curve" smooth="yes"/>
      <point x="443" y="1028"/>
      <point x="242" y="811"/>
      <point x="78" y="651" type="curve"/>
    </contour>
  </outline>
</glyph>
